<svg xmlns="http://www.w3.org/2000/svg" width="800" height="800" viewBox="0 0 800 800" version="1.1">
	<path d="M 572 199.898 C 573.019 200.626, 573.099 200.974, 572.250 200.985 C 570.537 201.006, 570.411 463.464, 572.120 470.736 C 574.514 480.920, 575.466 484, 576.218 484 C 576.648 484, 577 484.900, 577 486 C 577 487.100, 577.374 488, 577.831 488 C 578.288 488, 579.301 489.232, 580.081 490.738 C 582.557 495.515, 589.654 501.904, 595.750 504.844 C 596.712 505.308, 598.506 506.208, 599.736 506.844 C 603.188 508.628, 621.028 508.332, 624.846 506.427 C 626.581 505.561, 628 504.361, 628 503.760 C 628 503.159, 628.303 502.970, 628.674 503.340 C 629.542 504.208, 638 495.158, 638 493.361 C 638 492.613, 638.450 492, 639 492 C 639.550 492, 640 491.480, 640 490.844 C 640 490.209, 641.148 488.184, 642.551 486.344 C 643.954 484.505, 644.602 483, 643.992 483 C 643.381 483, 643.086 482.663, 643.336 482.250 C 643.586 481.837, 643.162 480.920, 642.395 480.211 C 641.628 479.501, 641 479.219, 641 479.583 C 641 479.947, 640.343 479.700, 639.541 479.034 C 637.815 477.601, 633.789 478.317, 628.091 481.070 C 625.894 482.132, 622.138 483, 619.744 483 C 616.207 483, 614.744 482.391, 611.941 479.750 C 608.653 476.653, 607.894 475.425, 604.991 468.500 C 604.002 466.139, 603.777 440.441, 603.935 347.760 C 604.147 223.679, 604.291 227.985, 599.610 218 C 597.397 213.279, 591.628 206.706, 590.600 207.733 C 590.270 208.063, 590 207.636, 590 206.783 C 590 205.496, 586.882 203.770, 585.582 204.338 C 585.377 204.427, 584.375 203.767, 583.355 202.872 C 582.335 201.976, 580.150 201.006, 578.500 200.715 C 576.850 200.425, 574.375 199.881, 573 199.507 C 571.065 198.980, 570.839 199.069, 572 199.898 M 217 296.178 C 209.025 297.160, 202.608 298.619, 199.764 300.097 C 198.809 300.594, 197.401 301, 196.636 301 C 195.871 301, 194.676 301.686, 193.980 302.524 C 193.284 303.362, 192.492 303.826, 192.220 303.554 C 191.381 302.715, 185.788 307.055, 179.500 313.423 C 173.563 319.436, 169 326.594, 169 329.895 C 169 330.833, 168.463 332.137, 167.807 332.793 C 166.107 334.493, 166.073 363.473, 167.769 365.169 C 168.446 365.846, 169 367.408, 169 368.641 C 169 369.874, 169.450 371.160, 170 371.500 C 170.550 371.840, 171 372.991, 171 374.059 C 171 375.127, 171.374 376, 171.831 376 C 172.288 376, 173.297 377.238, 174.074 378.750 C 175.511 381.548, 190 396.965, 190 395.695 C 190 395.313, 190.832 395.788, 191.850 396.750 C 194.775 399.517, 197.970 402, 198.607 402 C 198.928 402, 200.386 402.847, 201.846 403.883 C 203.306 404.919, 206.126 406.676, 208.113 407.789 C 215.729 412.053, 216.514 412.515, 217 413.008 C 217.275 413.287, 220.537 415.082, 224.250 416.997 C 227.963 418.912, 231 420.821, 231 421.239 C 231 421.658, 231.481 422, 232.070 422 C 234.064 422, 242.472 428.359, 248.523 434.443 C 253.797 439.747, 256.296 443.617, 260.352 452.768 C 261.658 455.716, 261.658 479.284, 260.352 482.232 C 255.021 494.258, 251.454 498.395, 242.398 503.052 C 238.581 505.016, 236.273 505.429, 229.111 505.429 C 215.029 505.429, 207.339 500.527, 201.064 487.548 C 196.935 479.011, 196.775 477.960, 195.957 454 C 195.207 432.018, 194.464 425, 192.891 425 C 192.401 425, 192 424.255, 192 423.344 C 192 421.074, 187.231 415, 185.449 415 C 184.652 415, 184 414.550, 184 414 C 184 412.382, 175 412.855, 170.836 414.692 C 168.726 415.623, 167 416.775, 167 417.251 C 167 417.728, 166.643 417.897, 166.207 417.628 C 164.870 416.801, 154.355 426.836, 155.634 427.718 C 157.329 428.887, 161 435.805, 161 437.830 C 161 438.804, 161.422 440.027, 161.937 440.550 C 162.453 441.072, 163.065 446.225, 163.298 452 C 163.861 465.982, 164.819 469.727, 170.250 479.175 C 173.017 483.989, 178.136 489.670, 184.510 495 C 188.649 498.461, 202.350 505.077, 208.500 506.585 C 213.583 507.831, 244.184 508.216, 245.352 507.048 C 245.928 506.472, 247.323 505.993, 248.450 505.985 C 251.187 505.965, 257.374 503.765, 259.384 502.096 C 260.273 501.359, 261 501.105, 261 501.533 C 261 501.960, 261.824 501.564, 262.831 500.653 C 263.838 499.741, 264.963 499.297, 265.331 499.664 C 265.699 500.032, 266 499.839, 266 499.234 C 266 498.629, 266.902 497.849, 268.004 497.499 C 271.515 496.384, 285.884 481, 283.413 481 C 283.015 481, 283.322 480.212, 284.095 479.250 C 286.446 476.322, 288 473.124, 288 471.214 C 288 470.216, 288.489 468.911, 289.086 468.314 C 290.547 466.853, 290.533 438.133, 289.070 436.670 C 288.482 436.082, 288 434.833, 288 433.895 C 288 432.322, 284.214 424.151, 282.952 423 C 282.650 422.725, 281.313 420.925, 279.979 419 C 277.143 414.904, 268.256 406, 267.005 406 C 266.531 406, 265.548 405.416, 264.821 404.702 C 262.645 402.565, 254.214 397, 253.153 397 C 252.611 397, 252.017 396.647, 251.833 396.216 C 251.650 395.785, 248.125 393.747, 244 391.687 C 239.875 389.628, 234.475 386.767, 232 385.330 C 229.525 383.893, 226.099 381.923, 224.387 380.953 C 217.644 377.131, 216.528 376.413, 213.567 374 C 208.874 370.175, 202.381 363.093, 200.864 360.144 C 200.116 358.690, 199.259 357.275, 198.960 357 C 197.399 355.564, 194.694 342.649, 194.666 336.500 C 194.646 331.841, 195.830 323.380, 196.906 320.500 C 200.381 311.202, 207.239 302, 210.695 302 C 211.413 302, 212 301.601, 212 301.113 C 212 300.222, 215.192 299.365, 222.379 298.326 C 226.526 297.727, 231.986 299.028, 238.581 302.186 C 242.714 304.165, 249 312.645, 249 316.240 C 249 317.143, 249.402 318.131, 249.894 318.435 C 250.386 318.739, 251.115 320.903, 251.515 323.244 C 252.395 328.405, 252.375 352.522, 251.482 363.367 C 251.057 368.519, 251.208 371.608, 251.917 372.317 C 252.513 372.913, 253 374.205, 253 375.189 C 253 378.348, 261.502 387.566, 264.644 387.812 C 276.143 388.716, 279.042 387.600, 290.275 377.945 C 292.977 375.623, 293.104 375.247, 291.676 373.819 C 287.434 369.577, 286.168 365.303, 285.024 351.363 C 284.398 343.739, 283.507 336.600, 283.044 335.500 C 282.581 334.400, 281.625 331.925, 280.921 330 C 279.166 325.205, 274.424 318.371, 269.288 313.235 C 266.930 310.877, 265 309.163, 265 309.426 C 265 309.689, 263.857 308.845, 262.459 307.549 C 257.174 302.652, 244.428 297.641, 234.542 296.576 C 231.265 296.223, 227.665 295.781, 226.542 295.594 C 225.419 295.407, 221.125 295.670, 217 296.178 M 409.500 297.073 C 397.658 298.487, 394.010 299.175, 393.435 300.106 C 393.131 300.598, 391.810 301, 390.500 301 C 389.190 301, 387.840 301.450, 387.500 302 C 387.160 302.550, 386.212 303, 385.393 303 C 384.574 303, 382.041 303.900, 379.764 305 C 377.487 306.100, 375.034 307, 374.312 307 C 373.590 307, 373 307.398, 373 307.883 C 373 308.369, 372.212 309.016, 371.250 309.322 C 369.443 309.895, 363.883 313.080, 363 314.048 C 362.725 314.350, 360.925 315.677, 359 316.997 C 354.957 319.769, 338 336.612, 338 337.855 C 338 338.314, 336.876 339.996, 335.501 341.594 C 334.127 343.193, 333.002 345.025, 333.001 345.667 C 333.001 346.308, 332.663 346.983, 332.250 347.167 C 331.170 347.647, 327 355.929, 327 357.595 C 327 358.368, 326.550 359, 326 359 C 325.450 359, 325 360.098, 325 361.441 C 325 362.784, 324.550 364.160, 324 364.500 C 323.450 364.840, 323 366.190, 323 367.500 C 323 368.810, 322.550 370.160, 322 370.500 C 321.450 370.840, 321 372.801, 321 374.859 C 321 376.917, 320.511 379.089, 319.914 379.686 C 318.474 381.126, 318.531 422.931, 319.975 424.375 C 320.539 424.939, 321 427.083, 321 429.141 C 321 431.199, 321.450 433.160, 322 433.500 C 322.550 433.840, 323 435.190, 323 436.500 C 323 437.810, 323.450 439.160, 324 439.500 C 324.550 439.840, 325 440.795, 325 441.622 C 325 445.009, 334.575 462.618, 338.702 466.821 C 339.416 467.548, 340 468.506, 340 468.949 C 340 470.301, 354.408 484.537, 357.810 486.547 C 359.565 487.583, 361 488.811, 361 489.275 C 361 489.738, 361.403 489.869, 361.895 489.565 C 362.388 489.260, 363.048 489.684, 363.364 490.506 C 363.679 491.328, 364.589 492, 365.385 492 C 366.182 492, 366.983 492.342, 367.167 492.759 C 367.686 493.943, 384.295 502.018, 386.191 502.008 C 387.121 502.004, 388.160 502.450, 388.500 503 C 388.840 503.550, 390.415 504, 392 504 C 393.585 504, 395.131 504.402, 395.435 504.894 C 396.499 506.617, 404.673 507.260, 425.500 507.260 C 446.325 507.260, 454.620 506.627, 456.450 504.898 C 456.973 504.404, 458.633 504, 460.141 504 C 461.649 504, 463.160 503.550, 463.500 503 C 463.840 502.450, 464.788 502, 465.607 502 C 466.426 502, 468.959 501.100, 471.236 500 C 473.513 498.900, 475.966 498, 476.688 498 C 477.410 498, 478 497.550, 478 497 C 478 496.450, 478.458 496, 479.018 496 C 480.650 496, 492.396 488.585, 496.622 484.888 C 507.511 475.359, 520 460.499, 520 457.070 C 520 456.481, 520.450 456, 521 456 C 521.550 456, 522 455.100, 522 454 C 522 452.900, 522.450 452, 523 452 C 523.550 452, 524 451.100, 524 450 C 524 448.900, 524.369 448, 524.819 448 C 525.270 448, 526.259 445.721, 527.017 442.937 C 527.776 440.152, 528.757 437.650, 529.198 437.378 C 529.639 437.105, 530 435.649, 530 434.141 C 530 432.633, 530.406 430.973, 530.903 430.450 C 531.400 429.928, 532.126 427.250, 532.516 424.500 C 533.617 416.750, 533.406 386.140, 532.210 380 C 530.422 370.829, 529.889 368.596, 528.925 366.250 C 528.416 365.012, 527.605 362.988, 527.122 361.750 C 525.208 356.841, 519.450 345.424, 518.261 344.179 C 517.568 343.452, 517 342.471, 517 342 C 517 341.529, 516.438 340.548, 515.750 339.821 C 515.063 339.095, 513.204 336.766, 511.620 334.646 C 507.937 329.718, 501.282 323.063, 496.354 319.380 C 494.234 317.796, 491.905 315.938, 491.179 315.250 C 490.452 314.563, 489.471 314, 489 314 C 488.529 314, 487.548 313.414, 486.821 312.698 C 484.823 310.729, 470.106 303.587, 465 302.108 C 462.525 301.391, 459.719 300.399, 458.764 299.903 C 457.809 299.406, 455.866 299, 454.448 299 C 453.029 299, 451.111 298.605, 450.184 298.121 C 447.762 296.858, 417.777 296.085, 409.500 297.073 M 212.750 298.662 C 213.438 298.940, 214.563 298.940, 215.250 298.662 C 215.938 298.385, 215.375 298.158, 214 298.158 C 212.625 298.158, 212.063 298.385, 212.750 298.662 M 232.750 298.662 C 233.438 298.940, 234.563 298.940, 235.250 298.662 C 235.938 298.385, 235.375 298.158, 234 298.158 C 232.625 298.158, 232.063 298.385, 232.750 298.662 M 408.762 298.707 C 410.006 298.946, 411.806 298.937, 412.762 298.687 C 413.718 298.437, 412.700 298.241, 410.500 298.252 C 408.300 298.263, 407.518 298.468, 408.762 298.707 M 417 299 C 416.175 299.533, 414.059 299.976, 412.297 299.985 C 410.535 299.993, 407.835 300.503, 406.297 301.118 C 401.605 302.992, 390.531 308.340, 390 308.987 C 389.725 309.322, 387.925 310.681, 386 312.006 C 382.409 314.477, 373 323.923, 373 325.056 C 373 325.404, 371.876 326.996, 370.501 328.594 C 369.127 330.193, 368.002 332.025, 368.001 332.667 C 368.001 333.308, 367.663 333.983, 367.250 334.167 C 366.170 334.647, 362 342.929, 362 344.595 C 362 345.368, 361.550 346, 361 346 C 360.450 346, 360 346.873, 360 347.941 C 360 349.009, 359.550 350.160, 359 350.500 C 358.450 350.840, 358 352.190, 358 353.500 C 358 354.810, 357.600 356.129, 357.110 356.432 C 356.621 356.734, 355.965 358.448, 355.652 360.241 C 355.339 362.033, 354.589 365.975, 353.985 369 C 351.034 383.784, 350.900 413.903, 353.707 431.462 C 354.443 436.064, 354.753 436.487, 358 437.308 C 359.925 437.795, 363.525 438.423, 366 438.704 C 368.475 438.985, 370.950 439.556, 371.500 439.973 C 373.031 441.134, 385.685 442.150, 389.560 441.423 C 392.063 440.953, 393 440.254, 393 438.855 C 393 437.008, 386.895 430.001, 385.283 429.999 C 384.853 429.998, 383.150 428.834, 381.500 427.412 C 379.850 425.990, 377.323 424.129, 375.886 423.278 C 373.388 421.798, 369.323 416.222, 369.739 414.846 C 369.847 414.486, 369.275 413.644, 368.468 412.973 C 365.991 410.918, 366.484 398, 369.219 393.307 C 371.394 389.575, 374 386.345, 374 387.381 C 374 387.669, 375.182 386.809, 376.626 385.471 C 378.070 384.133, 379.579 383.240, 379.978 383.487 C 380.378 383.734, 381.559 383.290, 382.603 382.500 C 384.830 380.814, 401.508 380.395, 402.500 382 C 402.840 382.550, 403.837 383, 404.715 383 C 405.593 383, 407.816 384.148, 409.656 385.551 C 411.495 386.954, 413 387.843, 413 387.527 C 413 386.984, 418.490 391.627, 421.928 395.078 C 422.793 395.946, 426.650 400.205, 430.500 404.544 C 437.910 412.895, 442.778 417.867, 447.652 422.061 C 451.010 424.951, 461.962 430.487, 466.500 431.589 C 473.067 433.184, 491.578 431.988, 497.039 429.616 C 500.238 428.227, 501.145 421.153, 500.654 401.413 C 500.396 391.011, 499.716 379.800, 499.144 376.500 C 497.061 364.495, 496.851 363.467, 496.070 361.500 C 495.634 360.400, 494.735 357.700, 494.072 355.500 C 491.824 348.033, 484.248 332.094, 481.952 330 C 481.650 329.725, 480.318 327.925, 478.992 326 C 476.372 322.198, 465.096 311, 463.887 311 C 463.478 311, 462.487 310.344, 461.686 309.543 C 456.268 304.125, 436.591 297.986, 424.736 298.015 C 421.306 298.024, 417.825 298.467, 417 299 M 438.762 298.707 C 440.006 298.946, 441.806 298.937, 442.762 298.687 C 443.718 298.437, 442.700 298.241, 440.500 298.252 C 438.300 298.263, 437.518 298.468, 438.762 298.707 M 446.972 387.433 C 445.032 388.706, 442.373 391.831, 441.063 394.377 C 438.837 398.705, 438.772 399.284, 440.066 403.253 C 440.826 405.589, 442.248 408.372, 443.224 409.439 C 444.201 410.505, 445 411.682, 445 412.056 C 445 412.429, 446.790 413.919, 448.979 415.367 C 453.636 418.450, 460.876 418.981, 463.429 416.429 C 464.293 415.564, 465 415.146, 465 415.500 C 465 417.159, 468.227 412.636, 470.009 408.480 C 472.178 403.418, 472.570 399.471, 471 398.500 C 470.450 398.160, 470 396.994, 470 395.908 C 470 393.974, 463.644 386.690, 462.743 387.591 C 462.491 387.842, 461.716 387.362, 461.020 386.524 C 459.047 384.147, 451.206 384.654, 446.972 387.433 M 390.750 404.115 C 389.238 405.244, 388 407.059, 388 408.149 C 388 410.179, 398.194 421, 400.106 421 C 401.566 421, 412.049 431.112, 411.503 431.994 C 411.262 432.385, 411.710 433.559, 412.500 434.603 C 414.331 437.021, 414.331 439.979, 412.500 442.397 C 411.710 443.441, 411.263 444.616, 411.506 445.009 C 412.145 446.044, 403.396 454, 401.618 454 C 400.793 454, 399.840 454.450, 399.500 455 C 399.160 455.550, 397.874 456, 396.641 456 C 395.408 456, 393.914 456.486, 393.320 457.080 C 392.274 458.126, 367.409 458.027, 364.024 456.964 C 363.075 456.666, 362.425 457.304, 362.204 458.750 C 362.015 459.988, 362.342 461, 362.930 461 C 363.519 461, 364 461.585, 364 462.301 C 364 464.140, 366.352 468.983, 367.250 468.992 C 367.663 468.996, 368 469.481, 368 470.070 C 368 473.597, 387.404 495, 390.602 495 C 391.371 495, 392 495.338, 392 495.752 C 392 497.076, 401.867 501.671, 410 504.136 C 415.842 505.906, 437.171 505.879, 443.105 504.094 C 451.086 501.693, 461 497.072, 461 495.752 C 461 495.338, 461.644 495, 462.430 495 C 465.653 495, 485 473.630, 485 470.070 C 485 469.481, 485.337 468.996, 485.750 468.992 C 486.648 468.983, 489 464.140, 489 462.301 C 489 461.585, 489.480 461, 490.066 461 C 490.653 461, 490.990 459.793, 490.816 458.319 C 490.505 455.678, 490.398 455.641, 483.760 455.887 C 476.865 456.143, 468.460 453.909, 461.405 449.946 C 459.683 448.979, 457.200 447.583, 455.887 446.844 C 454.574 446.105, 453.275 445.253, 453 444.952 C 452.725 444.650, 450.925 443.323, 449 442.002 C 447.075 440.681, 439.875 434.114, 433 427.408 C 426.125 420.701, 418.925 413.931, 417 412.363 C 415.075 410.796, 412.917 408.958, 412.203 408.281 C 410.992 407.131, 408.519 405.920, 401.703 403.141 C 397.592 401.464, 393.858 401.796, 390.750 404.115 M 218.762 506.707 C 220.006 506.946, 221.806 506.937, 222.762 506.687 C 223.718 506.437, 222.700 506.241, 220.500 506.252 C 218.300 506.263, 217.518 506.468, 218.762 506.707 M 235.762 506.707 C 237.006 506.946, 238.806 506.937, 239.762 506.687 C 240.718 506.437, 239.700 506.241, 237.500 506.252 C 235.300 506.263, 234.518 506.468, 235.762 506.707 M 411.250 506.716 C 412.762 506.945, 415.238 506.945, 416.750 506.716 C 418.262 506.487, 417.025 506.300, 414 506.300 C 410.975 506.300, 409.738 506.487, 411.250 506.716 M 436.264 506.718 C 437.784 506.947, 440.034 506.941, 441.264 506.704 C 442.494 506.467, 441.250 506.279, 438.500 506.286 C 435.750 506.294, 434.744 506.488, 436.264 506.718 M 587.269 561.693 C 588.242 561.947, 589.592 561.930, 590.269 561.656 C 590.946 561.382, 590.150 561.175, 588.500 561.195 C 586.850 561.215, 586.296 561.439, 587.269 561.693 M 412.264 563.718 C 413.784 563.947, 416.034 563.941, 417.264 563.704 C 418.494 563.467, 417.250 563.279, 414.500 563.286 C 411.750 563.294, 410.744 563.488, 412.264 563.718 M 441.962 563.746 C 445.516 563.944, 449.003 564.588, 449.712 565.176 C 450.649 565.953, 451 569.998, 451 580 C 451 591.696, 451.253 593.961, 452.687 595.128 C 454.162 596.327, 454.293 596.283, 453.731 594.781 C 452.750 592.162, 452.676 565.923, 453.648 564.957 C 454.116 564.491, 457.200 563.945, 460.500 563.744 C 463.800 563.543, 459.525 563.380, 451 563.382 C 442.475 563.384, 438.408 563.548, 441.962 563.746 M 474.917 563.413 C 474.688 563.640, 474.638 569.715, 474.806 576.913 C 475.065 588.028, 475.349 590, 476.686 590 C 477.950 590, 478.139 589.259, 477.642 586.250 C 477.301 584.188, 477.017 578.112, 477.011 572.750 C 477.001 564.209, 476.476 561.867, 474.917 563.413 M 502 574 C 502.096 586.333, 501.815 589.872, 500.582 591.867 C 499.009 594.413, 500.782 593.981, 502.468 591.408 C 503.425 589.948, 503.711 589.061, 503.104 589.436 C 502.497 589.811, 502 589.641, 502 589.059 C 502 588.477, 502.450 588, 503 588 C 504.342 588, 504.287 565.962, 502.940 564 C 502.209 562.935, 501.937 565.833, 502 574 M 516.250 564.496 C 515.354 565.514, 515.054 569.962, 515.191 580.208 C 515.379 594.248, 515.394 594.333, 516 585 L 516.617 575.500 516.809 585.750 L 517 596 525.250 595.799 L 533.500 595.598 525.703 595.256 L 517.905 594.914 518.203 578.956 C 518.366 570.179, 518.275 563.015, 518 563.037 C 517.725 563.058, 516.938 563.715, 516.250 564.496 M 531.269 563.693 C 532.242 563.947, 533.592 563.930, 534.269 563.656 C 534.946 563.382, 534.150 563.175, 532.500 563.195 C 530.850 563.215, 530.296 563.439, 531.269 563.693 M 558.250 564.749 C 556.674 565.276, 556.443 594.537, 558.007 595.504 C 559.763 596.590, 560.063 593.777, 559.778 578.871 C 559.566 567.778, 559.204 564.430, 558.250 564.749 M 282 565.930 L 289.500 566.500 290.215 580.777 C 290.609 588.629, 291.284 595.687, 291.715 596.460 C 292.147 597.234, 292.500 590.810, 292.500 582.184 L 292.500 566.500 300 565.930 C 304.911 565.557, 301.804 565.360, 291 565.360 C 280.196 565.360, 277.089 565.557, 282 565.930 M 314.432 573.375 C 314.692 577.844, 314.989 585.212, 315.093 589.750 L 315.282 598 328.891 597.797 L 342.500 597.595 330 597.047 L 317.500 596.500 316.925 590 C 316.608 586.425, 316.763 582.664, 317.267 581.643 C 317.861 580.442, 317.799 579.399, 317.093 578.693 C 315.286 576.886, 315.716 567.258, 317.652 566.175 C 318.989 565.427, 318.794 565.250, 316.633 565.250 L 313.961 565.250 314.432 573.375 M 352.872 566.750 C 351.629 568.336, 351.664 568.371, 353.250 567.128 C 354.916 565.821, 355.445 565, 354.622 565 C 354.415 565, 353.627 565.788, 352.872 566.750 M 539.079 566.583 C 539.127 567.748, 539.364 567.985, 539.683 567.188 C 539.972 566.466, 539.936 565.603, 539.604 565.271 C 539.272 564.939, 539.036 565.529, 539.079 566.583 M 574.661 566.823 C 573.747 567.832, 573 569.185, 573 569.829 C 573 570.473, 572.550 571, 572 571 C 570.557 571, 570.758 584.081, 572.250 587.293 C 572.938 588.773, 574.089 589.988, 574.809 589.992 C 575.529 589.996, 575.886 590.375, 575.603 590.833 C 575.320 591.292, 575.720 591.667, 576.493 591.667 C 577.568 591.667, 577.440 591.023, 575.949 588.929 C 573.363 585.297, 573.163 572.208, 575.635 568.434 C 577.627 565.394, 576.956 564.286, 574.661 566.823 M 214.618 567.448 C 214.946 568.302, 214.716 569, 214.107 569 C 213.341 569, 213.064 573.239, 213.208 582.750 C 213.408 596.006, 213.433 596.158, 213.924 587 L 214.432 577.500 215.039 588 C 215.619 598.033, 215.650 597.800, 215.735 582.754 C 215.783 574.094, 215.418 566.758, 214.923 566.452 C 214.428 566.146, 214.291 566.594, 214.618 567.448 M 257.558 566.775 C 256.275 568.058, 257.144 570, 259 570 C 260.100 570, 261 570.629, 261 571.398 C 261 572.168, 262.338 575.340, 263.972 578.447 C 265.607 581.555, 267.100 585.260, 267.290 586.679 C 267.481 588.099, 268.340 589.776, 269.201 590.405 C 270.062 591.035, 270.932 592.388, 271.133 593.412 C 271.335 594.436, 272.454 595.627, 273.621 596.057 C 275.419 596.721, 274.848 595.075, 269.871 585.245 C 266.642 578.867, 264 573.053, 264 572.325 C 264 571.596, 263.550 571, 263 571 C 262.450 571, 262 570.152, 262 569.117 C 262 567.322, 258.733 565.600, 257.558 566.775 M 558.400 580.500 C 558.401 588.750, 558.556 591.992, 558.744 587.704 C 558.932 583.417, 558.931 576.667, 558.742 572.704 C 558.552 568.742, 558.399 572.250, 558.400 580.500 M 600 566.878 C 600 567.495, 600.375 568, 600.833 568 C 601.846 568, 601.978 568.675, 602.647 577.305 C 603.038 582.333, 602.761 584.984, 601.588 587.456 C 598.606 593.739, 600.784 593.305, 604.014 586.972 C 606.381 582.334, 606.583 575.477, 604.479 571.259 C 602.741 567.774, 600 565.093, 600 566.878 M 164.250 568.573 C 163.351 569.539, 163.054 573.927, 163.193 584.208 C 163.323 593.856, 163.553 596.388, 163.900 592 L 164.415 585.500 165.027 593 L 165.640 600.500 165.820 593.294 L 166 586.088 173.250 585.743 L 180.500 585.397 173.288 585.199 L 166.075 585 165.788 576.115 C 165.556 568.948, 165.258 567.489, 164.250 568.573 M 198.030 573.096 C 197.988 582.225, 199.172 598, 199.900 598.001 C 200.842 598.004, 199.946 569.718, 198.951 568.019 C 198.366 567.020, 198.050 568.759, 198.030 573.096 M 401 570.965 C 401 574.043, 401.503 575.206, 403.250 576.167 C 406.916 578.182, 408.775 578.094, 406.250 576.024 C 404.677 574.734, 404 573.099, 404 570.590 C 404 568.066, 403.555 567, 402.500 567 C 401.419 567, 401 568.107, 401 570.965 M 516.232 570 C 516.232 571.925, 516.438 572.712, 516.689 571.750 C 516.941 570.788, 516.941 569.212, 516.689 568.250 C 516.438 567.288, 516.232 568.075, 516.232 570 M 349.639 568.694 C 349.288 569.046, 349 570.539, 349 572.012 C 349 574.717, 352.450 578.884, 353.675 577.658 C 354.039 577.294, 355.172 577.751, 356.192 578.674 C 357.406 579.772, 358.387 580.013, 359.029 579.371 C 359.671 578.729, 358.625 577.778, 356.005 576.622 C 352.673 575.152, 352 574.373, 352 571.987 C 352 569.113, 350.839 567.494, 349.639 568.694 M 185.411 572.750 C 185.524 574.813, 185.300 577.962, 184.913 579.750 C 184.177 583.156, 184.784 583.816, 186.800 581.800 C 188.260 580.340, 188.446 572.606, 187 573.500 C 186.450 573.840, 186 573.390, 186 572.500 C 186 571.472, 186.456 571.156, 187.250 571.633 C 188.099 572.143, 188.060 571.842, 187.128 570.692 C 185.253 568.381, 185.177 568.474, 185.411 572.750 M 350.195 571.500 C 350.215 573.150, 350.439 573.704, 350.693 572.731 C 350.947 571.758, 350.930 570.408, 350.656 569.731 C 350.382 569.054, 350.175 569.850, 350.195 571.500 M 541 569.948 C 541 570.461, 541.450 571.160, 542 571.500 C 543.619 572.501, 543.184 584.325, 541.396 587.909 C 539.020 592.671, 540.459 592.817, 543.428 588.114 C 547.048 582.380, 547.082 574.301, 543.500 571.187 C 542.125 569.991, 541 569.434, 541 569.948 M 402.079 573.583 C 402.127 574.748, 402.364 574.985, 402.683 574.188 C 402.972 573.466, 402.936 572.603, 402.604 572.271 C 402.272 571.939, 402.036 572.529, 402.079 573.583 M 572.328 578.500 C 572.333 582.350, 572.513 583.802, 572.730 581.728 C 572.946 579.653, 572.943 576.503, 572.722 574.728 C 572.501 572.952, 572.324 574.650, 572.328 578.500 M 604.310 578.500 C 604.315 581.800, 604.502 583.029, 604.725 581.232 C 604.947 579.435, 604.943 576.735, 604.715 575.232 C 604.486 573.729, 604.304 575.200, 604.310 578.500 M 544.300 579 C 544.300 582.025, 544.487 583.263, 544.716 581.750 C 544.945 580.237, 544.945 577.763, 544.716 576.250 C 544.487 574.737, 544.300 575.975, 544.300 579 M 409.218 578.154 C 409.737 579.712, 411.974 579.984, 412.053 578.500 C 412.082 577.950, 411.355 577.345, 410.438 577.154 C 409.395 576.939, 408.938 577.313, 409.218 578.154 M 164.252 581.500 C 164.263 583.700, 164.468 584.482, 164.707 583.238 C 164.946 581.994, 164.937 580.194, 164.687 579.238 C 164.437 578.282, 164.241 579.300, 164.252 581.500 M 186.079 579.583 C 186.127 580.748, 186.364 580.985, 186.683 580.188 C 186.972 579.466, 186.936 578.603, 186.604 578.271 C 186.272 577.939, 186.036 578.529, 186.079 579.583 M 364.218 580.154 C 364.464 580.895, 365.468 581.655, 366.448 581.846 C 367.588 582.066, 368.069 581.706, 367.782 580.846 C 367.536 580.105, 366.532 579.345, 365.552 579.154 C 364.412 578.934, 363.931 579.294, 364.218 580.154 M 417.535 579.944 C 416.911 580.952, 422.355 582.750, 424.324 582.186 C 424.778 582.057, 424.895 582.361, 424.585 582.862 C 424.276 583.363, 424.692 584.329, 425.511 585.009 C 427.455 586.623, 427.405 590.385, 425.395 593.785 C 424.295 595.645, 424.247 595.954, 425.243 594.766 C 426.043 593.812, 427.063 593.362, 427.509 593.766 C 427.955 594.169, 428.026 593.985, 427.666 593.355 C 427.306 592.725, 427.684 591.952, 428.506 591.636 C 429.328 591.321, 430 589.892, 430 588.460 C 430 585.792, 427.729 582.604, 426.619 583.714 C 426.279 584.055, 426 583.636, 426 582.783 C 426 581.931, 424.988 581.014, 423.750 580.745 C 422.512 580.477, 420.758 579.944, 419.851 579.560 C 418.944 579.177, 417.902 579.350, 417.535 579.944 M 370.568 581.891 C 370.265 582.380, 371.138 583.516, 372.509 584.414 C 374.392 585.647, 375 586.916, 375 589.606 C 375 592.007, 375.407 593.033, 376.250 592.756 C 378.156 592.131, 378.378 586.235, 376.564 584.421 C 375.704 583.561, 374.986 583.227, 374.970 583.679 C 374.953 584.130, 374.481 583.712, 373.920 582.750 C 372.809 580.843, 371.433 580.490, 370.568 581.891 M 376.232 589 C 376.232 590.925, 376.438 591.712, 376.689 590.750 C 376.941 589.788, 376.941 588.212, 376.689 587.250 C 376.438 586.288, 376.232 587.075, 376.232 589 M 428.195 588.500 C 428.215 590.150, 428.439 590.704, 428.693 589.731 C 428.947 588.758, 428.930 587.408, 428.656 586.731 C 428.382 586.054, 428.175 586.850, 428.195 588.500 M 476.079 587.583 C 476.127 588.748, 476.364 588.985, 476.683 588.188 C 476.972 587.466, 476.936 586.603, 476.604 586.271 C 476.272 585.939, 476.036 586.529, 476.079 587.583 M 247.333 588.500 C 247.333 589.325, 247.708 590, 248.167 590 C 248.625 590, 249 589.325, 249 588.500 C 249 587.675, 248.625 587, 248.167 587 C 247.708 587, 247.333 587.675, 247.333 588.500 M 253.750 589.732 C 256.087 589.943, 259.913 589.943, 262.250 589.732 C 264.587 589.522, 262.675 589.349, 258 589.349 C 253.325 589.349, 251.412 589.522, 253.750 589.732 M 349.543 590.931 C 349.226 591.443, 349.425 592.144, 349.984 592.490 C 350.543 592.835, 351 592.416, 351 591.559 C 351 589.802, 350.400 589.544, 349.543 590.931 M 401.500 592 C 401.840 592.550, 402.316 593, 402.559 593 C 402.802 593, 403 592.550, 403 592 C 403 591.450, 402.523 591, 401.941 591 C 401.359 591, 401.160 591.450, 401.500 592 M 478 592 C 478 592.550, 478.477 593, 479.059 593 C 479.641 593, 479.840 592.550, 479.500 592 C 479.160 591.450, 478.684 591, 478.441 591 C 478.198 591, 478 591.450, 478 592 M 481 595 C 481 595.550, 481.477 596, 482.059 596 C 482.641 596, 482.840 595.550, 482.500 595 C 482.160 594.450, 481.684 594, 481.441 594 C 481.198 594, 481 594.450, 481 595 M 585.250 595.716 C 586.763 595.945, 589.237 595.945, 590.750 595.716 C 592.263 595.487, 591.025 595.300, 588 595.300 C 584.975 595.300, 583.737 595.487, 585.250 595.716 M 359.728 597.722 C 361.503 597.943, 364.653 597.946, 366.728 597.730 C 368.802 597.513, 367.350 597.333, 363.500 597.328 C 359.650 597.324, 357.952 597.501, 359.728 597.722 M 413.750 597.662 C 414.438 597.940, 415.563 597.940, 416.250 597.662 C 416.938 597.385, 416.375 597.158, 415 597.158 C 413.625 597.158, 413.063 597.385, 413.750 597.662" stroke="none" fill="#C8522A" fill-rule="evenodd"/>
</svg>