<svg xmlns="http://www.w3.org/2000/svg" viewBox="0 0 4000 4000" version="1.1">
	<path d="M 2853.749 993.316 L 2851.997 994.723 2852.084 1667.111 C 2852.144 2122.620, 2852.505 2342.228, 2853.204 2347.957 C 2853.861 2353.346, 2855.016 2357.699, 2856.388 2359.957 C 2860.893 2367.374, 2861.718 2370.364, 2861.918 2380 C 2862.154 2391.387, 2863.562 2397.695, 2866.180 2399.097 C 2869.456 2400.850, 2871.992 2406.129, 2871.996 2411.203 C 2872.001 2417, 2873.529 2420.516, 2877.758 2424.461 C 2880.131 2426.674, 2881.261 2428.843, 2881.915 2432.443 L 2882.814 2437.385 2887.327 2441.443 L 2891.841 2445.500 2892.485 2450.271 C 2892.839 2452.895, 2893.662 2455.475, 2894.314 2456.006 C 2894.966 2456.536, 2896.963 2458.142, 2898.750 2459.574 C 2900.538 2461.006, 2902 2463.017, 2902 2464.042 C 2902 2465.068, 2903.156 2466.715, 2904.569 2467.703 C 2908.510 2470.459, 2912 2473.971, 2912 2475.179 C 2912 2476.336, 2916.995 2480.997, 2918.237 2480.999 C 2918.643 2480.999, 2920.089 2482.764, 2921.450 2484.921 C 2922.811 2487.077, 2924.841 2489.132, 2925.960 2489.487 C 2927.080 2489.843, 2929.368 2492.128, 2931.046 2494.567 C 2932.723 2497.005, 2934.675 2499, 2935.383 2499 C 2936.759 2499, 2942 2504.413, 2942 2505.834 C 2942 2506.302, 2944.059 2507.745, 2946.576 2509.039 C 2949.092 2510.333, 2951.793 2512.633, 2952.577 2514.150 C 2953.953 2516.810, 2958.775 2518.981, 2963.340 2518.994 C 2964.353 2518.997, 2967.349 2521.250, 2970 2524 L 2974.819 2529 2980.432 2529 L 2986.045 2529 2990.272 2532.835 C 2992.598 2534.945, 2995.400 2537.026, 2996.500 2537.461 C 2997.600 2537.895, 3004.359 2538.580, 3011.520 2538.983 C 3020.187 2539.470, 3027.042 2540.457, 3032.020 2541.934 C 3036.134 2543.154, 3041.525 2544.749, 3044 2545.478 C 3046.475 2546.207, 3053.060 2546.810, 3058.634 2546.818 C 3068.682 2546.832, 3071.905 2546.231, 3089.497 2541.058 C 3093.559 2539.863, 3099.431 2538.990, 3103.497 2538.976 C 3113.818 2538.941, 3117.780 2537.733, 3121.433 2533.506 C 3123.940 2530.604, 3125.483 2529.762, 3129.039 2529.353 C 3135.714 2528.585, 3138.265 2527.307, 3140.751 2523.486 C 3142.004 2521.559, 3144.662 2519.336, 3146.751 2518.467 C 3148.813 2517.609, 3152.525 2514.983, 3155 2512.630 C 3157.475 2510.277, 3160.706 2507.608, 3162.180 2506.698 C 3163.655 2505.789, 3166.330 2502.589, 3168.125 2499.587 C 3169.921 2496.585, 3172.382 2493.598, 3173.595 2492.949 C 3174.808 2492.300, 3176.628 2489.934, 3177.640 2487.691 C 3179.694 2483.134, 3183.397 2479, 3185.424 2479 C 3186.927 2479, 3188.551 2475.299, 3189.458 2469.810 C 3189.841 2467.497, 3191.120 2465.235, 3192.888 2463.747 C 3196.698 2460.542, 3198.643 2457.254, 3199.451 2452.654 C 3199.854 2450.362, 3201.309 2447.653, 3203.054 2445.947 C 3204.665 2444.373, 3206.703 2441.153, 3207.584 2438.792 C 3210.318 2431.466, 3211.177 2430.169, 3214.098 2428.960 C 3215.654 2428.315, 3217.854 2426.217, 3218.987 2424.298 C 3220.119 2422.379, 3222.403 2420.297, 3224.062 2419.670 C 3229.584 2417.586, 3228.982 2412.594, 3222.826 2409.410 C 3221.276 2408.608, 3219.397 2406.500, 3218.651 2404.726 C 3216.882 2400.518, 3208.771 2393.104, 3205.140 2392.378 C 3203.574 2392.065, 3200.361 2390.095, 3198 2388 C 3193.308 2383.837, 3190.625 2382.994, 3182.125 2383.011 C 3173.102 2383.029, 3169.645 2383.980, 3165.458 2387.598 C 3163.294 2389.469, 3159.943 2391.267, 3158.012 2391.594 C 3151.496 2392.699, 3147.516 2394.465, 3144.142 2397.748 C 3140.541 2401.252, 3140.496 2401.267, 3128.656 2402.913 C 3123.498 2403.629, 3119.903 2404.718, 3118.156 2406.092 C 3108.870 2413.398, 3088.718 2413.882, 3080.824 2406.991 C 3078.424 2404.895, 3075.656 2403.763, 3070.823 2402.899 C 3062.790 2401.464, 3062.969 2401.570, 3059.637 2396.250 C 3058.173 2393.912, 3056.366 2392, 3055.622 2392 C 3053.424 2392, 3049 2388.005, 3049 2386.021 C 3049 2385.012, 3046.750 2382.302, 3044 2380 L 3039 2375.814 3038.994 2372.657 C 3038.988 2368.887, 3037.194 2362.015, 3036.203 2361.964 C 3035.816 2361.944, 3034.184 2360.852, 3032.575 2359.537 L 3029.650 2357.146 3028.928 2346.323 C 3028.223 2335.770, 3026.972 2331.011, 3024.123 2328.040 C 3020.577 2324.343, 3019.611 2319.572, 3019.253 2304 C 3019.058 2295.475, 3018.808 2027.950, 3018.699 1709.500 C 3018.548 1271.016, 3018.217 1129.722, 3017.332 1127.294 C 3016.690 1125.531, 3014.749 1122.326, 3013.019 1120.173 L 3009.874 1116.259 3008.947 1106.470 C 3007.996 1096.414, 3006.517 1092.616, 3003.134 1091.543 C 3000.905 1090.835, 2999.554 1087.749, 2997.999 1079.815 L 2996.885 1074.130 2993.422 1072.086 C 2991.080 1070.705, 2989.762 1069.058, 2989.350 1067.002 C 2988.788 1064.191, 2986.561 1061.757, 2981.139 1058.029 C 2979.963 1057.220, 2979 1055.978, 2979 1055.268 C 2979 1053.509, 2958.883 1033.508, 2955.198 1031.602 C 2953.571 1030.761, 2951.317 1028.507, 2950.187 1026.593 C 2948.682 1024.042, 2947.053 1022.822, 2944.082 1022.022 C 2941.475 1021.320, 2939.051 1019.704, 2937.283 1017.488 C 2935.086 1014.734, 2933.432 1013.827, 2929.018 1012.954 C 2920.726 1011.314, 2920.354 1011.152, 2916.798 1007.631 C 2912.592 1003.468, 2911.256 1002.989, 2901.246 1002.052 L 2892.992 1001.279 2887.246 997.779 C 2880.650 993.762, 2878.144 993.159, 2865.027 992.435 C 2857.717 992.032, 2855.092 992.237, 2853.749 993.316 M 1095.853 1472.990 C 1080.749 1473.762, 1074.941 1474.501, 1072.127 1476.008 C 1065.525 1479.544, 1056.760 1481.278, 1042 1481.968 C 1026.645 1482.685, 1021.364 1483.824, 1017.960 1487.149 C 1015.198 1489.848, 1009.189 1492, 1004.349 1492.024 C 997.181 1492.061, 991.152 1493.736, 988.684 1496.376 C 985.721 1499.547, 980.711 1502, 977.199 1502 C 972.498 1502, 967.774 1504.059, 963.445 1507.995 C 960.745 1510.449, 958.015 1511.902, 955.278 1512.340 C 952.447 1512.792, 949.525 1514.398, 945.893 1517.498 C 942.993 1519.974, 939.826 1522, 938.857 1522 C 935.793 1522, 932.568 1524.050, 930.483 1527.323 C 929.373 1529.065, 926.631 1531.392, 924.388 1532.495 C 922.145 1533.598, 918.874 1535.995, 917.118 1537.823 C 915.362 1539.650, 911.890 1542.046, 909.403 1543.146 C 906.916 1544.246, 904.604 1545.901, 904.265 1546.823 C 903.368 1549.264, 899.266 1552.895, 896.670 1553.547 C 895.301 1553.890, 893.782 1555.593, 892.780 1557.906 C 891.707 1560.381, 890.065 1562.145, 888.059 1562.975 C 885.942 1563.852, 884.376 1565.621, 883.037 1568.649 C 881.967 1571.069, 879.567 1574.500, 877.705 1576.274 C 875.843 1578.048, 873.545 1581.550, 872.598 1584.056 C 871.355 1587.345, 869.901 1589.137, 867.369 1590.500 C 863.410 1592.632, 862.546 1593.934, 861.598 1599.190 C 861.189 1601.456, 859.837 1603.801, 858.093 1605.268 C 854.483 1608.306, 853.282 1610.588, 851.898 1617.040 C 851.161 1620.477, 849.651 1623.487, 847.434 1625.941 C 843.156 1630.676, 842 1633.802, 842 1640.631 C 842 1646.707, 841.095 1649.041, 837.014 1653.500 C 833.476 1657.365, 832 1663.662, 832 1674.894 C 832 1685.741, 830.715 1692.220, 826.859 1700.814 L 823.959 1707.277 823.006 1726.389 C 822.402 1738.507, 822.402 1752.502, 823.007 1764.638 L 823.961 1783.776 826.848 1790.138 C 831.485 1800.355, 831.999 1802.718, 832.015 1813.899 C 832.030 1824.528, 833.673 1833.058, 835.845 1833.782 C 836.480 1833.993, 837 1834.620, 837 1835.173 C 837 1835.727, 837.967 1836.962, 839.149 1837.920 L 841.298 1839.660 841.980 1848.247 C 842.641 1856.576, 844.658 1862, 847.094 1862 C 849.167 1862, 850.955 1864.880, 851.535 1869.151 C 852.619 1877.133, 852.985 1877.865, 857.504 1881.110 C 860.742 1883.436, 862 1885.028, 862 1886.804 C 862 1891.700, 864.148 1896.548, 867.057 1898.218 C 868.635 1899.124, 870.847 1901.808, 871.972 1904.182 C 873.104 1906.572, 875.549 1909.491, 877.447 1910.719 C 879.333 1911.939, 881.620 1914.504, 882.529 1916.419 C 883.437 1918.334, 885.618 1920.997, 887.375 1922.337 C 889.131 1923.677, 891.663 1926.900, 893 1929.500 C 894.337 1932.100, 896.869 1935.323, 898.625 1936.663 C 900.382 1938.003, 902.549 1940.638, 903.442 1942.518 C 904.417 1944.574, 906.465 1946.602, 908.582 1947.606 C 910.725 1948.623, 912.846 1950.738, 914.010 1953.019 C 915.154 1955.262, 916.887 1957.006, 918.332 1957.368 C 919.658 1957.701, 922.337 1959.738, 924.285 1961.894 C 926.233 1964.050, 929.909 1967.034, 932.453 1968.525 C 934.997 1970.016, 938.213 1972.723, 939.599 1974.541 C 940.986 1976.359, 943.473 1978.318, 945.126 1978.894 C 948.174 1979.957, 951.906 1983.605, 951.967 1985.581 C 952.002 1986.723, 954.991 1988.452, 958.751 1989.505 C 959.989 1989.851, 962.150 1991.641, 963.553 1993.480 C 965.395 1995.895, 967.411 1997.144, 970.802 1997.969 C 976.254 1999.297, 977.499 2000.159, 981.301 2005.250 C 982.942 2007.448, 984.948 2009, 986.147 2009 C 989.062 2009, 993.652 2011.941, 994.855 2014.580 C 995.613 2016.245, 997.363 2017.161, 1001.586 2018.107 L 1007.292 2019.384 1009.896 2023.115 C 1012.690 2027.120, 1015.721 2029, 1019.381 2029 C 1020.666 2029, 1023.598 2030.782, 1026.077 2033.071 C 1028.502 2035.310, 1032.242 2037.673, 1034.386 2038.321 C 1036.531 2038.969, 1040.216 2041.366, 1042.575 2043.647 L 1046.864 2047.794 1051.935 2048.491 L 1057.005 2049.188 1060.795 2053.622 L 1064.584 2058.055 1069.542 2058.849 C 1075.065 2059.733, 1078.763 2061.678, 1079.532 2064.101 C 1080.170 2066.110, 1085.338 2068.724, 1090.174 2069.485 C 1092.660 2069.875, 1094.820 2071.170, 1096.856 2073.488 C 1098.842 2075.750, 1101.672 2077.474, 1105.182 2078.561 C 1108.475 2079.581, 1111.642 2081.444, 1113.500 2083.456 C 1115.583 2085.710, 1118.102 2087.084, 1121.738 2087.949 C 1127.440 2089.304, 1131.539 2091.973, 1132.482 2094.943 C 1133.137 2097.006, 1137.776 2099, 1141.920 2099 C 1144.363 2099, 1145.779 2100.056, 1150.900 2105.697 C 1151.997 2106.906, 1154.711 2108.384, 1156.932 2108.982 C 1159.526 2109.680, 1161.953 2111.301, 1163.720 2113.515 C 1165.844 2116.177, 1167.687 2117.234, 1171.820 2118.159 C 1176.089 2119.114, 1177.708 2120.078, 1179.835 2122.928 C 1183.324 2127.604, 1184.852 2128.735, 1188.652 2129.456 C 1190.568 2129.819, 1192.773 2131.318, 1194.277 2133.277 C 1195.827 2135.298, 1198.596 2137.145, 1201.700 2138.229 C 1205.181 2139.445, 1207.771 2141.300, 1210.428 2144.479 C 1212.507 2146.966, 1214.815 2149, 1215.558 2149 C 1217.304 2149, 1222 2153.688, 1222 2155.432 C 1222 2156.169, 1223.513 2157.490, 1225.362 2158.368 C 1228.908 2160.050, 1230.738 2161.842, 1232.481 2165.337 C 1233.063 2166.505, 1234.495 2167.937, 1235.663 2168.519 C 1239.012 2170.189, 1241.138 2172.232, 1242.065 2174.672 C 1242.537 2175.912, 1244.686 2178.039, 1246.841 2179.400 C 1249.060 2180.800, 1251.206 2183.153, 1251.788 2184.821 C 1252.424 2186.646, 1254.365 2188.639, 1256.887 2190.057 C 1259.691 2191.632, 1261.307 2193.400, 1262.077 2195.733 C 1262.692 2197.596, 1264.915 2200.928, 1267.016 2203.138 C 1269.601 2205.855, 1271.224 2208.764, 1272.031 2212.128 C 1272.869 2215.624, 1274.007 2217.603, 1275.862 2218.792 C 1281.194 2222.212, 1281.979 2223.504, 1282.656 2229.980 C 1283.097 2234.206, 1283.920 2236.848, 1285.125 2237.909 C 1286.119 2238.784, 1288.073 2240.528, 1289.466 2241.785 L 1292 2244.071 1292 2250.354 C 1292 2256.869, 1294.413 2267, 1295.965 2267 C 1296.453 2267, 1298.098 2269.544, 1299.619 2272.654 L 1302.385 2278.308 1302.360 2334.904 L 1302.335 2391.500 1300.527 2395 C 1299.532 2396.925, 1297.708 2399.712, 1296.472 2401.193 C 1294.005 2404.149, 1292 2413.409, 1292 2421.841 L 1292 2427.019 1288.024 2429.760 C 1283.755 2432.702, 1282.015 2436.603, 1282.006 2443.260 L 1282 2447.019 1278.064 2449.760 C 1275.508 2451.539, 1273.433 2454.141, 1272.148 2457.181 C 1270.853 2460.243, 1269.125 2462.401, 1267.152 2463.421 C 1265.317 2464.370, 1263.640 2466.354, 1262.867 2468.490 C 1262.169 2470.421, 1261.283 2472, 1260.898 2472 C 1260.513 2472, 1257.481 2474.700, 1254.160 2478 C 1250.840 2481.300, 1247.432 2484, 1246.587 2484 C 1245.743 2484, 1244.339 2485.377, 1243.469 2487.060 C 1242.472 2488.988, 1240.302 2490.799, 1237.604 2491.956 C 1234.859 2493.132, 1232.573 2495.059, 1231.239 2497.320 L 1229.157 2500.848 1223.328 2502.639 C 1219.661 2503.766, 1216.336 2505.630, 1214.362 2507.668 C 1212.635 2509.449, 1210.160 2511.126, 1208.862 2511.396 C 1197.055 2513.844, 1195.259 2514.466, 1192.500 2517.058 C 1187.009 2522.218, 1186.365 2522.288, 1143.991 2522.343 C 1100.899 2522.400, 1097.710 2522.068, 1092.101 2516.946 C 1088.625 2513.771, 1083.484 2512.014, 1077.642 2512.006 L 1073.783 2512 1069.642 2507.559 C 1066.621 2504.320, 1064.430 2502.927, 1061.548 2502.410 C 1058.907 2501.937, 1056.085 2500.301, 1053.048 2497.482 C 1050.546 2495.162, 1047.035 2492.516, 1045.245 2491.603 C 1043.454 2490.690, 1040.883 2488.191, 1039.531 2486.050 C 1038.180 2483.909, 1035.715 2481.354, 1034.054 2480.373 C 1032.326 2479.352, 1029.970 2476.430, 1028.549 2473.544 C 1027.182 2470.770, 1024.698 2467.223, 1023.029 2465.662 C 1021.360 2464.102, 1019.734 2461.627, 1019.416 2460.162 C 1018.392 2455.449, 1016.787 2452, 1015.618 2452 C 1014.992 2452, 1013.269 2450.878, 1011.790 2449.506 C 1009.662 2447.533, 1008.956 2445.731, 1008.406 2440.873 C 1007.917 2436.554, 1007.124 2434.254, 1005.730 2433.117 C 1004.640 2432.228, 1002.680 2430.467, 1001.374 2429.205 L 999 2426.909 999 2421.604 C 999 2414.849, 997.468 2410.287, 993.927 2406.500 C 990.031 2402.332, 989 2399.010, 989 2390.619 C 989 2381.953, 987.389 2372.344, 985.423 2369.285 C 984.640 2368.067, 984 2366.417, 984 2365.619 C 984 2364.820, 983.608 2364.017, 983.129 2363.833 C 982.650 2363.650, 981.559 2360.800, 980.705 2357.500 L 979.152 2351.500 979.220 2258 C 979.289 2163.136, 978.951 2153.105, 975.575 2149.712 C 974.912 2149.045, 973.161 2146.435, 971.685 2143.912 L 969 2139.324 969 2132.130 C 969 2124.289, 967.246 2118.737, 964.264 2117.141 C 962.107 2115.987, 959.415 2110.235, 958.560 2104.956 C 958.187 2102.649, 956.469 2099.806, 953.637 2096.808 C 950.528 2093.516, 949.102 2091.039, 948.635 2088.117 L 947.981 2084.031 943.950 2081.975 C 941.633 2080.793, 939.495 2078.801, 938.920 2077.291 C 937.669 2073.999, 935.191 2072.073, 932.154 2072.032 C 929.042 2071.990, 924.443 2069.197, 922.978 2066.459 C 920.851 2062.484, 915.380 2061.738, 888.500 2061.759 C 859.659 2061.781, 856.385 2062.331, 850.792 2068.095 L 847.002 2072 843.150 2072 C 837.511 2072, 833.762 2073.688, 831.500 2077.246 C 830.215 2079.268, 827.688 2081.126, 824.431 2082.446 C 821.643 2083.576, 817.633 2086.138, 815.521 2088.139 C 813.409 2090.141, 810.065 2092.273, 808.091 2092.877 C 805.774 2093.585, 803.698 2095.221, 802.240 2097.488 C 800.997 2099.421, 798.655 2101.564, 797.035 2102.251 C 795.415 2102.938, 793.057 2105.041, 791.795 2106.925 C 790.533 2108.809, 788.150 2111.091, 786.500 2111.996 C 784.850 2112.901, 782.941 2114.790, 782.257 2116.193 C 780.899 2118.980, 778.942 2120.846, 775.663 2122.481 C 774.495 2123.063, 773.081 2124.434, 772.520 2125.528 C 770.487 2129.493, 768.455 2131.727, 766.250 2132.424 C 762.091 2133.738, 764.099 2139, 768.760 2139 C 771.869 2139, 781.575 2148.182, 783.191 2152.653 C 783.898 2154.607, 785.776 2156.850, 787.612 2157.934 C 790.124 2159.416, 791.164 2161.051, 792.486 2165.600 C 793.558 2169.287, 795.587 2172.996, 798.084 2175.832 L 802 2180.282 802 2187.592 C 802 2196.899, 803.574 2204.297, 806.767 2210 C 808.152 2212.475, 809.737 2216.075, 810.289 2218 C 810.844 2219.939, 811.597 2242.239, 811.976 2268 C 812.648 2313.595, 813.140 2320.029, 816.104 2322.022 C 816.531 2322.309, 818.028 2325.009, 819.431 2328.022 C 821.331 2332.105, 821.984 2335.155, 821.996 2340 C 822.018 2349.432, 823.500 2353.964, 827.776 2357.683 L 831.436 2360.865 832.068 2368.603 L 832.701 2376.340 835.101 2378.190 C 841.380 2383.033, 841.816 2383.681, 842.504 2389.189 C 843.304 2395.589, 843.454 2395.866, 847.748 2398.865 C 849.534 2400.112, 851.288 2402.340, 851.647 2403.816 C 852.554 2407.554, 854.343 2409.922, 857.886 2412.077 C 860.180 2413.472, 861.318 2415.287, 862.545 2419.508 C 863.812 2423.864, 864.918 2425.577, 867.575 2427.296 C 869.533 2428.563, 871.449 2430.901, 872.083 2432.796 C 872.769 2434.846, 874.640 2437.010, 877.034 2438.522 C 879.151 2439.858, 881.628 2442.521, 882.538 2444.439 C 883.448 2446.357, 885.162 2448.231, 886.346 2448.602 C 889.019 2449.441, 893 2453.604, 893 2455.560 C 893 2456.361, 894.783 2457.730, 896.962 2458.602 C 899.142 2459.474, 901.197 2461.045, 901.530 2462.093 C 901.862 2463.142, 902.554 2464, 903.067 2464 C 903.580 2464, 904 2464.569, 904 2465.264 C 904 2465.959, 905.913 2467.357, 908.250 2468.369 C 910.587 2469.381, 913.914 2471.592, 915.641 2473.280 C 917.369 2474.969, 920.744 2477.109, 923.141 2478.036 C 926.104 2479.181, 928.396 2481.039, 930.299 2483.835 C 932.384 2486.899, 934.138 2488.229, 937.171 2489.046 C 939.429 2489.654, 942.499 2491.518, 944.063 2493.230 C 946.789 2496.215, 952.607 2498.954, 956.287 2498.985 C 957.270 2498.993, 960.019 2501.001, 962.396 2503.447 L 966.718 2507.894 972.109 2508.651 C 975.074 2509.067, 977.810 2509.325, 978.189 2509.224 C 978.569 2509.123, 980.401 2510.819, 982.262 2512.993 L 985.645 2516.946 993.073 2518.096 C 1002.638 2519.577, 1005.605 2520.703, 1008.852 2524.085 C 1012.036 2527.402, 1016.201 2528.612, 1025.422 2528.900 C 1032.827 2529.132, 1037.549 2530.656, 1042.456 2534.399 C 1046.721 2537.652, 1053.019 2538.761, 1068.277 2538.945 C 1078.455 2539.068, 1084.812 2539.787, 1096.460 2542.132 C 1115.929 2546.053, 1119.887 2546.495, 1135.500 2546.498 C 1148.568 2546.500, 1155.824 2545.911, 1166 2544.020 C 1169.025 2543.458, 1174.200 2542.555, 1177.500 2542.013 C 1180.800 2541.471, 1186.200 2540.574, 1189.500 2540.020 C 1192.800 2539.465, 1200.930 2539.009, 1207.566 2539.006 C 1223.290 2538.998, 1230.089 2537.680, 1237.281 2533.244 L 1243.062 2529.678 1254.254 2528.808 C 1265.366 2527.944, 1267.074 2527.386, 1272 2523.010 C 1275.271 2520.104, 1278.276 2519, 1282.916 2519 C 1288.516 2519, 1293.081 2517.154, 1296.876 2513.355 C 1298.733 2511.496, 1301.433 2509.730, 1302.876 2509.431 C 1311.692 2507.604, 1314.301 2506.463, 1317.899 2502.865 C 1320.156 2500.608, 1322.750 2498.985, 1324.132 2498.965 C 1327.311 2498.917, 1330.208 2497.152, 1333.415 2493.310 C 1335.226 2491.140, 1337.816 2489.614, 1341.515 2488.539 C 1345.114 2487.492, 1347.338 2486.205, 1348.093 2484.729 C 1349.527 2481.928, 1353.023 2479.051, 1355.029 2479.022 C 1355.870 2479.010, 1357.220 2478.037, 1358.029 2476.861 C 1360.951 2472.611, 1364.197 2469, 1365.094 2469 C 1366.414 2469, 1390 2445.448, 1390 2444.130 C 1390 2443.522, 1391.833 2441.868, 1394.072 2440.454 C 1396.460 2438.947, 1398.578 2436.640, 1399.192 2434.879 C 1399.788 2433.169, 1401.894 2430.829, 1404.077 2429.451 C 1406.839 2427.708, 1408.200 2425.973, 1408.929 2423.264 C 1409.487 2421.194, 1411.491 2417.906, 1413.383 2415.959 C 1415.573 2413.703, 1417.423 2410.352, 1418.476 2406.731 C 1419.707 2402.496, 1420.942 2400.476, 1423.315 2398.820 C 1427.599 2395.829, 1427.700 2395.625, 1428.469 2388.440 L 1429.141 2382.172 1432.932 2378.336 C 1437.435 2373.779, 1439 2369.631, 1439 2362.252 C 1439 2356.241, 1441.235 2350.457, 1444.596 2347.773 C 1447.532 2345.427, 1447.986 2343.016, 1448.979 2324.500 L 1449.837 2308.500 1453.462 2297.500 L 1457.086 2286.500 1457.097 2261.853 L 1457.108 2237.205 1455.464 2231.853 C 1454.560 2228.909, 1453.449 2225.600, 1452.995 2224.500 C 1450.503 2218.461, 1449 2208.110, 1449 2196.987 C 1449 2182.632, 1447.929 2177.660, 1443.828 2172.981 C 1439.881 2168.479, 1439 2166.035, 1439 2159.584 C 1439 2152.522, 1437.440 2148.241, 1433.267 2143.855 C 1430.553 2141.002, 1429.493 2138.722, 1428.388 2133.355 L 1426.976 2126.500 1423.520 2123.679 C 1421.287 2121.856, 1419.836 2119.643, 1419.420 2117.426 C 1419.066 2115.539, 1417.667 2112.983, 1416.310 2111.747 C 1414.954 2110.511, 1412.840 2108.553, 1411.614 2107.396 C 1410.323 2106.179, 1408.851 2102.914, 1408.120 2099.646 C 1407.383 2096.350, 1406.319 2094, 1405.565 2094 C 1403.635 2094, 1399 2088.994, 1399 2086.910 C 1399 2085.911, 1397.844 2084.285, 1396.431 2083.297 C 1392.138 2080.294, 1389 2076.988, 1389 2075.469 C 1389 2074.677, 1387.301 2072.904, 1385.225 2071.530 C 1383.149 2070.156, 1380.658 2067.691, 1379.690 2066.052 C 1378.721 2064.412, 1376.588 2062.279, 1374.948 2061.310 C 1373.309 2060.342, 1370.844 2057.851, 1369.470 2055.775 C 1368.096 2053.699, 1366.326 2052, 1365.537 2052 C 1364.747 2052, 1362.841 2050.313, 1361.301 2048.250 C 1357.644 2043.354, 1356.335 2042, 1355.259 2042 C 1354.156 2042, 1349 2036.691, 1349 2035.556 C 1349 2034.357, 1345.766 2032.071, 1344 2032.021 C 1343.175 2031.998, 1341.600 2030.830, 1340.500 2029.426 C 1336.437 2024.240, 1335.051 2023.108, 1331.591 2022.153 C 1329.645 2021.615, 1326.353 2019.562, 1324.276 2017.589 C 1322.199 2015.617, 1318.700 2013.304, 1316.500 2012.449 C 1314.056 2011.499, 1311.415 2009.373, 1309.711 2006.984 C 1307.839 2004.358, 1305.728 2002.743, 1303.287 2002.069 C 1301.287 2001.517, 1298.042 1999.529, 1296.075 1997.651 C 1294.101 1995.767, 1290.128 1993.470, 1287.202 1992.523 C 1283.029 1991.172, 1281.386 1989.988, 1279.470 1986.952 C 1277.558 1983.923, 1276.230 1982.964, 1273.268 1982.473 C 1267.108 1981.452, 1264.059 1979.908, 1262.289 1976.913 C 1260.623 1974.091, 1258.174 1972.741, 1252.500 1971.514 C 1250.850 1971.157, 1247.925 1969.342, 1246 1967.481 C 1243.585 1965.146, 1240.639 1963.621, 1236.500 1962.564 C 1231.938 1961.398, 1229.781 1960.195, 1227.500 1957.545 C 1225.145 1954.809, 1223.318 1953.826, 1219 1952.971 C 1211.809 1951.546, 1209.687 1950.433, 1207.678 1947.032 L 1206.017 1944.220 1199.551 1942.935 C 1193.387 1941.710, 1190.655 1940.051, 1187.704 1935.741 C 1186.950 1934.639, 1184.121 1933.564, 1180.132 1932.863 C 1173.840 1931.758, 1173.272 1931.390, 1168.326 1925.223 C 1166.984 1923.550, 1165.042 1922.782, 1161 1922.325 L 1155.500 1921.704 1150.806 1916.852 C 1147.634 1913.572, 1145.295 1912, 1143.590 1912 C 1139.998 1912, 1134.392 1909.101, 1133.018 1906.533 C 1132.374 1905.330, 1130.194 1903.787, 1128.174 1903.103 C 1120.257 1900.423, 1118.857 1899.623, 1117.504 1897.007 L 1116.102 1894.297 1110.348 1893.141 C 1104.663 1891.999, 1099 1888.142, 1099 1885.411 C 1099 1884.096, 1093.920 1882, 1090.733 1882 C 1089.650 1882, 1087.011 1880.246, 1084.867 1878.103 C 1082.724 1875.959, 1079.121 1873.465, 1076.862 1872.561 C 1072.848 1870.956, 1069.100 1867.550, 1069.033 1865.449 C 1069.015 1864.871, 1066.994 1863.424, 1064.543 1862.233 C 1062.061 1861.027, 1059.446 1858.830, 1058.641 1857.273 C 1057.846 1855.736, 1055.385 1853.461, 1053.172 1852.217 C 1050.959 1850.973, 1048.555 1848.615, 1047.830 1846.978 C 1047.105 1845.340, 1045.979 1844, 1045.327 1844 C 1043.648 1844, 1037.005 1837.541, 1036.977 1835.882 C 1036.965 1835.122, 1035.502 1833.790, 1033.727 1832.923 C 1031.892 1832.026, 1029.768 1829.818, 1028.804 1827.803 C 1027.870 1825.855, 1025.497 1823.311, 1023.530 1822.150 C 1021.562 1820.989, 1019.697 1819.243, 1019.385 1818.270 C 1018.076 1814.181, 1016.713 1812.413, 1013.725 1810.925 C 1011.339 1809.736, 1010.018 1807.947, 1008.351 1803.641 C 1007.135 1800.501, 1004.755 1796.640, 1003.063 1795.059 C 1001.309 1793.421, 999.739 1790.749, 999.409 1788.843 C 998.453 1783.311, 996.987 1780.319, 993.874 1777.546 C 990.156 1774.233, 989.450 1772.305, 988.556 1763.031 C 987.803 1755.224, 987.011 1752.987, 983.787 1749.563 C 982.718 1748.428, 981.275 1746.150, 980.580 1744.500 C 977.978 1738.327, 976.772 1679.234, 978.396 1637.500 C 979.174 1617.494, 980.209 1612.289, 984.268 1607.956 C 986.963 1605.079, 988.900 1597.557, 988.958 1589.743 L 989 1583.987 991.250 1582.034 C 992.487 1580.959, 994.351 1579.460, 995.390 1578.701 C 996.717 1577.733, 997.611 1575.123, 998.390 1569.947 L 999.500 1562.572 1003.627 1559.803 C 1006.821 1557.659, 1008 1556.068, 1008.842 1552.766 C 1009.440 1550.420, 1011.750 1546.307, 1013.976 1543.628 C 1016.201 1540.948, 1018.694 1537.341, 1019.514 1535.612 C 1020.334 1533.883, 1022.804 1531.357, 1025.003 1529.998 C 1027.201 1528.640, 1029 1527.257, 1029 1526.925 C 1029 1525.399, 1035.335 1519.133, 1037.403 1518.614 C 1038.675 1518.294, 1042.334 1516.001, 1045.533 1513.516 C 1048.732 1511.032, 1052.193 1509, 1053.224 1509 C 1055.647 1509, 1061.268 1506.126, 1062.304 1504.357 C 1063.868 1501.687, 1070.813 1499, 1076.210 1498.978 C 1082.133 1498.954, 1095.557 1496.886, 1104.206 1494.666 C 1111.279 1492.850, 1125.568 1493.295, 1133.126 1495.567 C 1137.984 1497.028, 1153.548 1498.967, 1160.527 1498.983 C 1168.898 1499.001, 1171.050 1499.804, 1175.649 1504.630 C 1176.831 1505.870, 1180.424 1507.571, 1183.634 1508.409 C 1188.124 1509.581, 1190.331 1510.864, 1193.195 1513.967 C 1195.244 1516.185, 1197.656 1518, 1198.556 1518 C 1200.790 1518, 1205.878 1521.676, 1209.500 1525.908 C 1211.150 1527.836, 1214.575 1531.731, 1217.112 1534.565 C 1220.010 1537.802, 1221.979 1541.077, 1222.411 1543.377 C 1222.941 1546.201, 1224.010 1547.613, 1227.097 1549.561 C 1231.632 1552.424, 1231.619 1552.398, 1232.517 1560.390 L 1233.179 1566.280 1237.589 1570.294 L 1242 1574.308 1242 1580.211 C 1242 1587.978, 1243.745 1594.906, 1246.482 1598 C 1251.597 1603.784, 1252 1605.037, 1252 1615.182 C 1252 1625.506, 1253.686 1639.769, 1255.122 1641.592 C 1257.138 1644.150, 1260.210 1656.211, 1261.136 1665.201 C 1261.691 1670.585, 1261.983 1692.171, 1261.793 1713.701 L 1261.451 1752.500 1259.199 1757.500 C 1257.960 1760.250, 1256.292 1763.850, 1255.492 1765.500 C 1252.924 1770.797, 1252.006 1785.669, 1252.003 1822.032 C 1252 1860.229, 1252.659 1866.672, 1256.876 1869.626 C 1260.159 1871.926, 1262 1876.385, 1262 1882.041 L 1262 1887.181 1267 1892 C 1269.750 1894.651, 1272 1897.693, 1272 1898.760 C 1272 1902.837, 1274.201 1906.922, 1277.087 1908.199 C 1278.891 1908.997, 1280.757 1911.079, 1281.957 1913.632 C 1283.283 1916.453, 1284.855 1918.102, 1286.893 1918.813 C 1288.631 1919.419, 1290.949 1921.544, 1292.428 1923.885 C 1294.324 1926.889, 1295.967 1928.183, 1298.884 1928.969 C 1301.330 1929.627, 1303.808 1931.292, 1305.496 1933.409 C 1308.215 1936.818, 1311.673 1938.219, 1320.591 1939.524 C 1322.842 1939.853, 1327.252 1941.670, 1330.391 1943.561 L 1336.100 1947 1345.819 1947 L 1355.538 1947 1363.500 1943 L 1371.462 1939 1377.166 1939 C 1384.414 1939, 1387.685 1937.735, 1391.661 1933.394 L 1394.842 1929.921 1400.671 1928.983 C 1406.367 1928.067, 1407.278 1927.460, 1410.972 1922.123 C 1411.782 1920.953, 1414.305 1919.285, 1416.579 1918.417 C 1418.852 1917.548, 1422.118 1915.348, 1423.836 1913.527 C 1425.554 1911.706, 1429.135 1909.433, 1431.793 1908.477 C 1435.254 1907.233, 1436.983 1905.935, 1437.881 1903.907 C 1438.570 1902.350, 1440.985 1900.046, 1443.246 1898.788 C 1445.508 1897.530, 1448.090 1895.150, 1448.984 1893.500 C 1449.878 1891.850, 1452.160 1889.719, 1454.055 1888.764 C 1455.950 1887.809, 1458.037 1885.736, 1458.694 1884.158 C 1459.407 1882.444, 1461.219 1880.751, 1463.194 1879.951 C 1467.071 1878.382, 1467.964 1877.315, 1467.985 1874.225 C 1467.995 1872.749, 1467.175 1871.637, 1465.648 1871.056 C 1464.355 1870.565, 1461.842 1868.326, 1460.064 1866.081 C 1458.286 1863.837, 1456.307 1861.985, 1455.666 1861.967 C 1453.393 1861.902, 1449.843 1858.014, 1448.884 1854.541 C 1448.349 1852.604, 1446.134 1848.965, 1443.961 1846.455 C 1439.877 1841.736, 1439.714 1841.331, 1438.065 1831.773 C 1437.119 1826.291, 1434.631 1821, 1432.999 1821 C 1432.575 1821, 1431.521 1819.510, 1430.657 1817.689 L 1429.086 1814.379 1428.466 1775.939 C 1427.839 1736.991, 1426.929 1720.723, 1425.192 1717.357 C 1421.339 1709.894, 1419 1699.679, 1419 1690.321 C 1419 1677.954, 1417.577 1672.175, 1413.504 1668.004 C 1409.878 1664.291, 1409.365 1662.630, 1408.562 1652 L 1408.071 1645.500 1403.536 1641.646 L 1399 1637.792 1399 1633.545 C 1399 1627.094, 1397.371 1623.547, 1393.576 1621.737 L 1390.231 1620.142 1388.457 1614.504 C 1387.482 1611.403, 1385.222 1607.223, 1383.435 1605.214 C 1381.648 1603.206, 1379.674 1599.854, 1379.048 1597.766 C 1378.246 1595.091, 1376.765 1593.245, 1374.034 1591.522 C 1371.903 1590.176, 1369.841 1588.046, 1369.453 1586.788 C 1369.065 1585.529, 1366.442 1582.221, 1363.624 1579.436 C 1360.806 1576.651, 1353.550 1569.394, 1347.500 1563.310 C 1341.450 1557.227, 1334.250 1549.997, 1331.500 1547.245 C 1328.750 1544.492, 1325.600 1541.946, 1324.500 1541.587 C 1323.400 1541.227, 1321.023 1538.923, 1319.218 1536.467 C 1317.120 1533.611, 1315.171 1532, 1313.813 1532 C 1312.640 1532, 1310.002 1530.225, 1307.916 1528.032 C 1305.220 1525.199, 1302.763 1523.734, 1299.321 1522.910 C 1294.858 1521.841, 1289 1517.473, 1289 1515.215 C 1289 1513.773, 1284.201 1512, 1280.299 1512 L 1276.693 1512 1273.048 1508.052 C 1268.889 1503.547, 1265.546 1502, 1259.968 1502 L 1256.067 1502 1251 1497.500 C 1248.213 1495.025, 1245.611 1492.989, 1245.217 1492.976 C 1243.211 1492.908, 1233.103 1491.861, 1230.362 1491.437 C 1228.636 1491.170, 1225.261 1489.468, 1222.862 1487.654 C 1220.463 1485.841, 1217.600 1483.986, 1216.500 1483.533 C 1215.400 1483.079, 1207.866 1482.417, 1199.757 1482.061 C 1190.383 1481.650, 1184.575 1480.975, 1183.807 1480.207 C 1183.143 1479.543, 1181.874 1479, 1180.987 1479 C 1180.100 1479, 1177.153 1477.936, 1174.437 1476.635 C 1171.722 1475.334, 1166.575 1473.972, 1163 1473.608 C 1152.598 1472.550, 1111.813 1472.175, 1095.853 1472.990 M 2074 1473.938 C 2069.325 1474.333, 2064.375 1475.136, 2063 1475.724 C 2061.625 1476.311, 2058.475 1477.335, 2056 1478 C 2053.525 1478.665, 2050.375 1479.669, 2049 1480.232 C 2047.625 1480.795, 2037.725 1481.612, 2027 1482.048 C 2004.533 1482.960, 2002.072 1483.362, 1996.558 1487.016 C 1990.717 1490.887, 1986.664 1492, 1978.400 1492 C 1969.484 1492, 1961.181 1493.638, 1958.500 1495.925 C 1953.208 1500.439, 1950.407 1501.476, 1942 1502.036 C 1933.118 1502.628, 1931.057 1503.397, 1923.990 1508.750 C 1920.793 1511.172, 1918.655 1512.006, 1915.600 1512.024 C 1908.722 1512.064, 1903.845 1513.672, 1901.089 1516.809 C 1897.603 1520.776, 1894.950 1521.999, 1889.816 1522.004 C 1885.270 1522.008, 1879.377 1524.853, 1878.345 1527.543 C 1877.519 1529.695, 1872.678 1532, 1868.984 1532 C 1864.956 1532, 1862.545 1533.343, 1858.005 1538.115 L 1854.310 1542 1850.702 1542 C 1845.741 1542, 1842.946 1543.514, 1839.934 1547.832 L 1837.368 1551.510 1831.697 1552.700 C 1827.169 1553.649, 1825.247 1554.707, 1822.168 1557.945 C 1820.046 1560.175, 1817.452 1562.014, 1816.405 1562.032 C 1814.010 1562.072, 1812.046 1563.617, 1809.152 1567.740 C 1807.484 1570.116, 1805.451 1571.394, 1801.522 1572.537 C 1797.647 1573.663, 1795.455 1575.026, 1793.594 1577.466 C 1792.179 1579.320, 1789.421 1581.366, 1787.465 1582.012 C 1785.137 1582.780, 1783.073 1584.508, 1781.492 1587.013 C 1780.162 1589.119, 1778.046 1591.159, 1776.788 1591.547 C 1775.529 1591.935, 1772.183 1594.558, 1769.351 1597.376 C 1762.256 1604.438, 1753.773 1611.845, 1750.356 1613.964 C 1748.785 1614.937, 1745.696 1617.706, 1743.491 1620.117 C 1741.287 1622.528, 1736.669 1627.124, 1733.230 1630.332 C 1729.791 1633.539, 1725.745 1637.793, 1724.239 1639.784 C 1722.732 1641.775, 1719.588 1645.326, 1717.250 1647.676 C 1714.912 1650.025, 1713 1652.353, 1713 1652.848 C 1713 1654.168, 1706.541 1661, 1705.293 1661 C 1704.707 1661, 1703.432 1662.676, 1702.460 1664.725 C 1700.499 1668.858, 1698.673 1671, 1697.110 1671 C 1695.659 1671, 1692 1675.103, 1692 1676.730 C 1692 1678.335, 1689.526 1680.959, 1685.844 1683.262 C 1683.959 1684.441, 1682.988 1686.113, 1682.496 1689.024 C 1681.997 1691.978, 1680.570 1694.395, 1677.396 1697.660 C 1674.972 1700.154, 1672.706 1703.388, 1672.360 1704.847 C 1671.578 1708.148, 1669.199 1710.962, 1666.232 1712.097 C 1663.659 1713.081, 1662.016 1716.633, 1661.967 1721.315 C 1661.934 1724.418, 1659.119 1729, 1657.245 1729 C 1655.429 1729, 1653.104 1732.582, 1652.143 1736.860 C 1651.274 1740.727, 1648.859 1744.459, 1645.277 1747.471 C 1644.604 1748.037, 1643.329 1751.355, 1642.444 1754.845 C 1641.363 1759.112, 1639.836 1762.224, 1637.785 1764.345 C 1634.140 1768.113, 1632 1772.802, 1632 1777.018 C 1632 1780.706, 1629.454 1785.970, 1626.745 1787.881 C 1623.881 1789.902, 1622 1795.199, 1622 1801.245 C 1622 1806.766, 1620.615 1809.701, 1616.220 1813.493 C 1613.499 1815.842, 1612.057 1821.233, 1612.024 1829.185 C 1611.995 1836.073, 1610.784 1839.545, 1607.030 1843.500 C 1603.295 1847.435, 1602.012 1852.532, 1602.006 1863.467 C 1602.001 1871.531, 1600.150 1880.153, 1598.028 1882 C 1593.910 1885.585, 1592.129 1895.746, 1591.942 1916.722 C 1591.843 1927.783, 1591.282 1934.208, 1589.888 1940.222 C 1583.367 1968.363, 1583.251 1969.887, 1583.853 2020 C 1584.087 2039.449, 1584.658 2050.281, 1585.806 2057 C 1586.698 2062.225, 1587.719 2066.725, 1588.075 2067 C 1589.798 2068.332, 1591.830 2085.784, 1591.953 2100.314 C 1592.116 2119.501, 1592.885 2123.966, 1597.714 2133.736 L 1601.444 2141.283 1602.134 2152.891 C 1602.911 2165.963, 1603.570 2168.790, 1606.669 2172.343 C 1610.492 2176.725, 1611.340 2179.307, 1612.062 2188.760 C 1612.457 2193.934, 1613.371 2198.833, 1614.134 2199.863 C 1614.885 2200.877, 1616.962 2203.640, 1618.750 2206.003 C 1621.181 2209.217, 1622.003 2211.333, 1622.011 2214.400 C 1622.037 2223.916, 1623.526 2227.453, 1629.171 2231.407 L 1631.421 2232.983 1632.084 2240.215 L 1632.747 2247.446 1637.048 2251.151 L 1641.350 2254.856 1642.084 2261.082 L 1642.818 2267.307 1647.409 2271.231 L 1652 2275.156 1652.070 2279.328 C 1652.168 2285.126, 1653.040 2286.845, 1657.420 2289.869 C 1660.939 2292.299, 1663.939 2297.767, 1663.985 2301.835 C 1663.993 2302.570, 1665.569 2304.560, 1667.487 2306.258 C 1669.472 2308.015, 1671.226 2310.671, 1671.558 2312.423 C 1672.297 2316.318, 1673.689 2318.151, 1677.681 2320.488 C 1679.799 2321.728, 1681.439 2323.878, 1682.591 2326.925 C 1683.541 2329.441, 1685.788 2332.900, 1687.584 2334.611 C 1689.400 2336.342, 1691.337 2339.537, 1691.949 2341.812 C 1692.779 2344.894, 1694.081 2346.594, 1697.232 2348.710 C 1699.597 2350.298, 1701.669 2352.597, 1702 2354 C 1702.332 2355.406, 1704.408 2357.705, 1706.790 2359.305 C 1709.102 2360.858, 1711.267 2363.216, 1711.601 2364.545 C 1711.934 2365.874, 1714.410 2368.544, 1717.104 2370.479 C 1719.797 2372.414, 1722 2374.466, 1722 2375.040 C 1722 2376.341, 1753.777 2408.128, 1756.457 2409.508 C 1757.534 2410.063, 1759.594 2412.254, 1761.036 2414.377 C 1762.478 2416.500, 1765.056 2418.824, 1766.764 2419.543 C 1768.473 2420.261, 1770.588 2422.237, 1771.466 2423.934 C 1772.451 2425.838, 1774.787 2427.830, 1777.572 2429.139 C 1780.108 2430.331, 1782.700 2432.453, 1783.493 2433.986 C 1784.499 2435.931, 1786.237 2437.086, 1789.559 2438.016 C 1792.463 2438.830, 1795.513 2440.671, 1797.666 2442.910 C 1799.564 2444.884, 1803.195 2447.625, 1805.735 2449 C 1808.275 2450.375, 1811.097 2452.847, 1812.005 2454.494 L 1813.656 2457.488 1819.038 2458.683 C 1823.221 2459.612, 1825.243 2460.769, 1828.109 2463.873 C 1830.474 2466.434, 1833.291 2468.271, 1835.955 2468.988 C 1838.241 2469.603, 1840.874 2471.033, 1841.806 2472.165 C 1845.274 2476.378, 1846.128 2476.885, 1851.711 2478.044 C 1858.370 2479.426, 1861.268 2481.097, 1862.787 2484.431 C 1863.645 2486.315, 1865.135 2487.082, 1869.691 2487.986 C 1878.271 2489.687, 1878.272 2489.688, 1882.673 2493.917 L 1886.739 2497.823 1892.620 2498.546 C 1899.996 2499.452, 1901.764 2500.130, 1905.500 2503.487 C 1909.791 2507.343, 1914.179 2509, 1920.100 2509 C 1925.533 2509, 1931.177 2511.593, 1932.948 2514.903 C 1934.106 2517.066, 1942.238 2519, 1950.175 2519 C 1956.592 2519, 1960.979 2520.571, 1965.015 2524.313 C 1968.148 2527.218, 1976.713 2529, 1987.541 2529 C 1996.295 2529, 2001.416 2530.344, 2007.645 2534.276 C 2012.733 2537.488, 2023.296 2538.865, 2047 2539.407 C 2057.175 2539.639, 2066.625 2540.092, 2068 2540.413 C 2069.375 2540.734, 2072.525 2541.236, 2075 2541.529 C 2077.475 2541.822, 2081.300 2542.480, 2083.500 2542.992 C 2097.089 2546.154, 2102.394 2546.534, 2131 2546.397 L 2152.500 2546.293 2162.500 2544.211 C 2168 2543.066, 2174.975 2541.823, 2178 2541.448 C 2181.025 2541.073, 2184.400 2540.563, 2185.500 2540.314 C 2186.600 2540.066, 2195.825 2539.659, 2206 2539.411 C 2232.758 2538.758, 2240.868 2537.584, 2248.815 2533.216 L 2255.297 2529.653 2268.398 2528.940 C 2283.374 2528.125, 2286.786 2527.460, 2289.279 2524.870 C 2292.765 2521.247, 2297.491 2519.675, 2307.440 2518.828 C 2313.565 2518.306, 2318.171 2517.398, 2319.440 2516.462 C 2327.998 2510.151, 2329.480 2509.363, 2333.202 2509.143 C 2342.800 2508.577, 2347.191 2507.112, 2350.396 2503.409 L 2353.500 2499.820 2360.500 2499.017 C 2369.235 2498.013, 2370.036 2497.677, 2372.500 2493.966 C 2374.485 2490.976, 2377.412 2489.718, 2385.207 2488.503 C 2387.658 2488.121, 2390.300 2486.595, 2393 2484 C 2395.646 2481.458, 2398.392 2479.854, 2400.793 2479.450 C 2407.180 2478.374, 2407.878 2477.986, 2411.605 2473.438 L 2415.241 2469 2419.073 2469 C 2424.131 2469, 2427.065 2467.519, 2429.500 2463.735 C 2430.715 2461.847, 2433.343 2459.875, 2436.195 2458.711 C 2438.777 2457.658, 2442.733 2455.042, 2444.987 2452.898 C 2447.240 2450.754, 2449.944 2449, 2450.995 2449 C 2454.309 2449, 2458.026 2446.744, 2458.622 2444.370 C 2458.978 2442.952, 2460.831 2441.292, 2463.503 2439.999 C 2465.872 2438.852, 2469.270 2436.122, 2471.055 2433.933 C 2472.840 2431.743, 2475.920 2429.217, 2477.900 2428.318 C 2479.880 2427.420, 2483.300 2425.017, 2485.500 2422.977 C 2487.700 2420.938, 2490.982 2418.647, 2492.792 2417.885 C 2494.603 2417.123, 2496.927 2415.077, 2497.957 2413.337 C 2498.987 2411.598, 2501.423 2409.419, 2503.371 2408.494 C 2505.319 2407.570, 2507.830 2405.258, 2508.952 2403.356 C 2510.074 2401.455, 2512.280 2399.450, 2513.853 2398.901 C 2515.426 2398.353, 2517.340 2396.688, 2518.107 2395.202 C 2520.030 2391.473, 2522.114 2389.367, 2524.654 2388.587 C 2525.838 2388.224, 2527.565 2386.330, 2528.491 2384.378 C 2529.417 2382.426, 2531.730 2379.912, 2533.630 2378.791 C 2535.531 2377.669, 2537.954 2375.051, 2539.014 2372.972 C 2540.097 2370.850, 2542.229 2368.624, 2543.878 2367.894 C 2545.895 2367.001, 2547.211 2365.390, 2548.084 2362.745 C 2548.783 2360.628, 2550.881 2357.556, 2552.747 2355.917 C 2554.613 2354.279, 2557.026 2350.934, 2558.110 2348.484 C 2559.194 2346.034, 2561.901 2342.567, 2564.125 2340.779 C 2566.350 2338.991, 2568.785 2336.057, 2569.536 2334.259 C 2570.287 2332.461, 2572.449 2330.077, 2574.341 2328.961 C 2576.968 2327.412, 2578.040 2325.899, 2578.882 2322.555 C 2579.574 2319.808, 2581.267 2316.967, 2583.429 2314.928 C 2585.442 2313.029, 2587.420 2309.825, 2588.187 2307.220 C 2589.385 2303.151, 2591.916 2300.165, 2596.424 2297.500 C 2597.529 2296.847, 2598.393 2294.443, 2598.915 2290.570 L 2599.714 2284.640 2602.607 2282.325 C 2604.198 2281.052, 2605.765 2280.008, 2606.089 2280.005 C 2607.099 2279.996, 2609 2275.030, 2609 2272.403 C 2609 2269.151, 2611.265 2264.892, 2614 2263 C 2616.904 2260.992, 2619 2256.793, 2619 2252.984 C 2619 2249.074, 2620.460 2246.196, 2624.063 2243 C 2627.671 2239.801, 2629 2236.190, 2629 2229.589 L 2629 2224.308 2633.500 2220.212 C 2636.221 2217.736, 2638.033 2215.204, 2638.082 2213.808 C 2638.127 2212.539, 2638.345 2210.150, 2638.565 2208.500 C 2638.786 2206.850, 2639.204 2203.489, 2639.494 2201.031 C 2639.886 2197.715, 2640.908 2195.651, 2643.457 2193.031 C 2647.442 2188.934, 2648.940 2183.690, 2648.976 2173.700 C 2649.001 2166.547, 2650.441 2162.461, 2654.507 2158 C 2657.510 2154.706, 2659 2147.123, 2659 2135.132 C 2659 2124.641, 2660.547 2117.688, 2664.441 2110.678 C 2667.798 2104.633, 2668.868 2091.712, 2669.545 2049 C 2669.863 2028.925, 2670.116 2011.600, 2670.108 2010.500 C 2669.590 1944.582, 2668.242 1915.236, 2665.489 1910 C 2664.766 1908.625, 2663.157 1905.250, 2661.913 1902.500 L 2659.651 1897.500 2658.924 1883 C 2658.122 1867.020, 2657.700 1864.893, 2654.453 1860.500 C 2650.006 1854.482, 2649 1851.331, 2649 1843.416 C 2649 1835.092, 2647.398 1828.090, 2645.311 1827.289 C 2644.590 1827.012, 2644 1826.324, 2644 1825.760 C 2644 1825.196, 2643.031 1823.894, 2641.847 1822.867 L 2639.694 1821 2638.946 1811.972 C 2638.194 1802.896, 2637.749 1801.798, 2632.813 1796.873 C 2631.239 1795.302, 2629.881 1792.598, 2629.535 1790.346 C 2627.655 1778.127, 2626.896 1776.023, 2623.414 1773.367 C 2619.622 1770.475, 2618.275 1767.018, 2618.077 1759.672 C 2618.023 1757.712, 2616.754 1755.681, 2613.941 1753.058 C 2610.787 1750.117, 2609.549 1747.961, 2608.389 1743.387 C 2607.303 1739.105, 2605.979 1736.661, 2603.533 1734.424 C 2601.653 1732.705, 2599.693 1729.618, 2599.086 1727.424 C 2597.758 1722.625, 2597.445 1722.193, 2592.750 1718.693 C 2589.975 1716.625, 2589 1715.170, 2589 1713.098 C 2589 1708.483, 2587.116 1704.500, 2584.087 1702.711 C 2582.516 1701.783, 2580.328 1699.106, 2579.225 1696.762 C 2578.121 1694.418, 2575.482 1691.104, 2573.359 1689.398 C 2570.628 1687.203, 2569.097 1684.919, 2568.120 1681.582 C 2567.214 1678.486, 2565.712 1676.118, 2563.745 1674.684 C 2562.097 1673.483, 2559.933 1670.613, 2558.934 1668.307 C 2557.842 1665.783, 2555.955 1663.511, 2554.195 1662.601 C 2552.586 1661.769, 2550.508 1659.482, 2549.576 1657.520 C 2548.645 1655.557, 2546.145 1652.854, 2544.021 1651.513 C 2541.897 1650.172, 2539.839 1648.067, 2539.447 1646.834 C 2538.659 1644.351, 2536.622 1642, 2535.259 1642 C 2534.050 1642, 2529.437 1636.909, 2528.669 1634.727 C 2528.326 1633.752, 2527.248 1632.673, 2526.273 1632.328 C 2523.627 1631.393, 2519.905 1627.803, 2518.909 1625.224 C 2518.426 1623.973, 2517.236 1622.669, 2516.265 1622.328 C 2514.089 1621.562, 2509 1616.948, 2509 1615.741 C 2509 1614.580, 2506.396 1612, 2505.224 1612 C 2503.907 1612, 2500.739 1608.957, 2498.672 1605.705 C 2497.695 1604.168, 2495.906 1602.496, 2494.698 1601.990 C 2491.382 1600.600, 2489.366 1598.730, 2488.608 1596.340 C 2488.205 1595.071, 2486.254 1593.519, 2483.857 1592.559 C 2479.422 1590.785, 2477.904 1589.558, 2476.198 1586.371 C 2475.562 1585.181, 2473.235 1583.761, 2470.790 1583.070 C 2466.052 1581.731, 2462.876 1579.505, 2461.179 1576.334 C 2460.565 1575.188, 2458.105 1573.329, 2455.711 1572.204 C 2453.317 1571.079, 2450.131 1568.549, 2448.631 1566.583 C 2446.532 1563.831, 2444.938 1562.856, 2441.702 1562.345 C 2438.559 1561.849, 2436.420 1560.590, 2433.213 1557.351 C 2430.855 1554.969, 2427.705 1552.755, 2426.213 1552.432 C 2421.758 1551.467, 2419.432 1550.001, 2417.697 1547.064 L 2416.055 1544.285 2409.778 1543.018 L 2403.500 1541.750 2399.447 1537.472 L 2395.394 1533.193 2389.447 1532.480 C 2383.606 1531.780, 2379 1529.137, 2379 1526.486 C 2379 1524.869, 2375.161 1523.282, 2369.380 1522.508 C 2362.491 1521.586, 2359.591 1520.291, 2357.213 1517.074 C 2355.013 1514.098, 2348.979 1512, 2342.622 1512 C 2337.771 1512, 2335.078 1510.784, 2330.902 1506.710 L 2327.304 1503.199 2319.402 1502.566 C 2308.818 1501.719, 2304.910 1500.558, 2300.922 1497.076 C 2296.786 1493.465, 2295.367 1493.114, 2280.878 1492.121 L 2269.255 1491.324 2262.572 1487.650 C 2254.647 1483.294, 2248.126 1482.162, 2229.650 1481.934 C 2216.580 1481.773, 2210.389 1480.757, 2197 1476.575 L 2189.500 1474.233 2136 1473.726 C 2106.575 1473.448, 2078.675 1473.543, 2074 1473.938 M 2113.500 1493.071 C 2098.016 1496.869, 2090.080 1497.870, 2067 1498.934 L 2051.500 1499.649 2047.500 1501.719 C 2045.300 1502.858, 2041.692 1504.732, 2039.481 1505.885 C 2036.954 1507.203, 2032.687 1508.190, 2027.981 1508.546 C 2017.138 1509.366, 2015.883 1509.763, 2011.880 1513.643 C 2008.162 1517.247, 2003.402 1518.933, 1996.828 1518.976 L 1993.156 1519 1989.828 1522.864 C 1986.339 1526.916, 1985.035 1527.571, 1978.500 1528.556 C 1973.635 1529.289, 1970.370 1531.260, 1969.505 1533.984 C 1968.776 1536.282, 1964.167 1539, 1961 1539 C 1957.818 1539, 1953.589 1541.531, 1952.089 1544.334 C 1951.312 1545.785, 1948.692 1547.692, 1945.855 1548.871 C 1942.679 1550.192, 1940.354 1551.976, 1939.231 1553.956 C 1938.132 1555.892, 1935.934 1557.607, 1933.211 1558.654 C 1930.852 1559.560, 1928.001 1561.594, 1926.876 1563.174 C 1925.752 1564.753, 1922.957 1566.991, 1920.666 1568.148 C 1915.466 1570.772, 1901.793 1582.832, 1892.112 1593.333 C 1890.675 1594.891, 1887.320 1598.491, 1884.656 1601.333 C 1881.992 1604.175, 1879.130 1607.850, 1878.297 1609.500 C 1877.464 1611.150, 1875.087 1614.300, 1873.015 1616.500 C 1870.943 1618.700, 1868.953 1621.761, 1868.592 1623.303 C 1868.190 1625.018, 1866.624 1626.879, 1864.556 1628.100 C 1862.553 1629.281, 1860.349 1631.854, 1859.145 1634.414 C 1857.896 1637.072, 1855.736 1639.548, 1853.533 1640.848 C 1851.564 1642.010, 1849.799 1643.532, 1849.613 1644.230 C 1849.426 1644.929, 1848.734 1647.748, 1848.075 1650.495 C 1847.416 1653.242, 1846.132 1655.906, 1845.222 1656.415 C 1841.810 1658.325, 1839 1661.997, 1839 1664.545 C 1839 1666.399, 1837.517 1668.611, 1834 1672 L 1829 1676.819 1829 1680.828 C 1829 1686.466, 1828.340 1687.670, 1823.380 1691.083 L 1819 1694.096 1818.965 1699.298 C 1818.923 1705.359, 1817.871 1707.501, 1812.750 1711.949 L 1809 1715.207 1809 1720.136 C 1809 1725.802, 1807.069 1731.123, 1804.288 1733.119 C 1801.115 1735.398, 1799.266 1740.055, 1798.190 1748.478 L 1797.172 1756.456 1794.813 1758.484 C 1790.241 1762.417, 1789.001 1765.176, 1788.976 1771.473 C 1788.940 1780.256, 1787.323 1786.050, 1783.927 1789.565 C 1780.115 1793.511, 1779 1797.589, 1779 1807.584 C 1779 1816.466, 1777.167 1824.067, 1774.229 1827.370 C 1770.411 1831.661, 1769 1837.908, 1768.996 1850.533 C 1768.992 1863.859, 1767.096 1877.431, 1764.391 1883.500 C 1760.078 1893.178, 1759.795 1895.659, 1759.043 1930.500 C 1758.275 1966.079, 1758.705 2096.584, 1759.613 2103.500 C 1760.561 2110.720, 1762.023 2116.147, 1764.155 2120.356 C 1767.002 2125.979, 1768.727 2137.909, 1768.932 2153.390 L 1769.102 2166.279 1771.009 2170.019 C 1772.059 2172.075, 1774.753 2175.612, 1776.997 2177.879 L 1781.077 2182 1787.789 2182.067 C 1791.480 2182.105, 1796.075 2182.311, 1798 2182.527 C 1799.925 2182.742, 1804.200 2183.190, 1807.500 2183.523 C 1811.357 2183.912, 1815.318 2185.147, 1818.590 2186.982 C 1825.607 2190.917, 1829.903 2191.877, 1841.452 2192.090 C 1851.485 2192.276, 1860.901 2193.861, 1863.235 2195.759 C 1866.127 2198.110, 1872.068 2200.915, 1875.175 2201.397 C 1878.809 2201.960, 1915.567 2203.402, 1926 2203.391 C 1929.575 2203.387, 1936.452 2203.031, 1941.283 2202.599 L 1950.067 2201.815 1953.002 2199.345 C 1954.821 2197.814, 1956.589 2194.806, 1957.652 2191.434 L 1959.367 2185.993 1956.826 2183.246 C 1955.429 2181.736, 1953.293 2178.685, 1952.080 2176.466 C 1950.867 2174.247, 1948.530 2171.547, 1946.886 2170.466 C 1945.242 2169.385, 1942.324 2166.599, 1940.402 2164.275 C 1938.480 2161.951, 1935.364 2159.317, 1933.478 2158.423 C 1931.592 2157.528, 1928.057 2155.041, 1925.621 2152.898 C 1923.186 2150.754, 1920.310 2149, 1919.231 2149 C 1916.811 2149, 1912 2145.341, 1912 2143.500 C 1912 2142.755, 1909.188 2140.794, 1905.750 2139.143 C 1902.313 2137.492, 1898.455 2134.782, 1897.177 2133.120 C 1895.636 2131.116, 1893.112 2129.575, 1889.677 2128.542 C 1885.608 2127.318, 1883.913 2126.130, 1881.760 2122.992 C 1880.225 2120.756, 1878.203 2119, 1877.164 2119 C 1875.227 2119, 1872 2116.079, 1872 2114.326 C 1872 2113.067, 1868.730 2110.048, 1865.763 2108.569 C 1864.540 2107.959, 1863.081 2106.566, 1862.520 2105.472 C 1860.653 2101.832, 1858.528 2099.514, 1855.733 2098.072 C 1853.673 2097.009, 1852.808 2095.654, 1852.346 2092.764 C 1851.906 2090.010, 1850.481 2087.639, 1847.437 2084.595 C 1844.447 2081.605, 1842.940 2079.124, 1842.462 2076.403 C 1841.684 2071.979, 1839.549 2068.134, 1836.767 2066.149 C 1833.809 2064.038, 1832.728 2060.294, 1831.963 2049.500 C 1831.573 2044, 1830.454 2036.575, 1829.476 2033 C 1827.077 2024.228, 1827.076 2010.255, 1829.475 2003 C 1830.476 1999.975, 1831.596 1992.775, 1831.964 1987 C 1832.601 1977.032, 1833.951 1972, 1835.990 1972 C 1836.495 1972, 1838.055 1970.855, 1839.455 1969.455 C 1841.478 1967.431, 1842 1965.920, 1842 1962.089 C 1842 1957.290, 1844.733 1952, 1847.212 1952 C 1848.524 1952, 1850.491 1949.544, 1852.618 1945.250 C 1853.503 1943.463, 1854.812 1942, 1855.525 1942 C 1856.754 1942, 1859.717 1938.872, 1862.971 1934.139 C 1863.780 1932.963, 1864.948 1932, 1865.568 1932 C 1867.164 1932, 1871.120 1928.396, 1872.434 1925.743 C 1873.116 1924.367, 1875.355 1922.920, 1878.224 1922 C 1880.798 1921.175, 1884.387 1919.122, 1886.202 1917.437 C 1890.230 1913.696, 1894.034 1912, 1898.397 1912 C 1900.577 1912, 1903.159 1910.895, 1905.990 1908.750 C 1913.429 1903.114, 1914.544 1902.797, 1929.891 1901.941 C 1937.926 1901.492, 1946.424 1900.693, 1948.776 1900.163 C 1953.965 1898.995, 1975.956 1899.510, 1981.500 1900.929 C 1983.700 1901.492, 1989.913 1901.963, 1995.307 1901.976 C 2007.757 1902.006, 2013.507 1903.425, 2018.225 1907.630 C 2022.091 1911.075, 2023.239 1911.495, 2031.378 1912.434 L 2036.256 1912.997 2040.378 1917.353 L 2044.500 1921.709 2050.750 1922.905 L 2057.001 1924.101 2058.415 1926.836 C 2059.193 1928.340, 2060.993 1930.117, 2062.415 1930.785 C 2063.837 1931.453, 2066.116 1932.521, 2067.479 1933.158 C 2068.843 1933.795, 2070.975 1935.800, 2072.218 1937.613 C 2073.609 1939.643, 2076.201 1941.569, 2078.963 1942.624 C 2081.430 1943.566, 2084.920 1945.976, 2086.719 1947.980 C 2088.518 1949.983, 2091.454 1952.201, 2093.245 1952.908 C 2095.142 1953.658, 2097.158 1955.509, 2098.077 1957.347 C 2098.954 1959.100, 2101.249 1961.264, 2103.246 1962.220 C 2105.340 1963.222, 2107.732 1965.530, 2108.981 1967.753 C 2110.160 1969.851, 2112.465 1972.160, 2114.102 1972.885 C 2115.847 1973.657, 2117.788 1975.714, 2118.790 1977.851 C 2119.839 1980.090, 2121.728 1982.041, 2123.679 1982.900 C 2125.562 1983.729, 2127.106 1985.287, 2127.466 1986.719 C 2128.076 1989.151, 2133.337 1995, 2134.913 1995 C 2135.377 1995, 2136.346 1996.422, 2137.066 1998.159 C 2137.786 1999.897, 2140.111 2003.160, 2142.233 2005.409 C 2144.355 2007.659, 2147.187 2011.325, 2148.526 2013.555 C 2149.865 2015.785, 2152.601 2018.917, 2154.606 2020.515 C 2156.611 2022.114, 2158.657 2024.587, 2159.154 2026.012 C 2159.651 2027.437, 2161.507 2029.454, 2163.279 2030.495 C 2167.456 2032.949, 2168.581 2034.106, 2169.447 2036.834 C 2169.839 2038.067, 2171.897 2040.172, 2174.021 2041.513 C 2176.145 2042.854, 2178.653 2045.575, 2179.595 2047.559 C 2180.536 2049.543, 2182.346 2051.561, 2183.616 2052.044 C 2184.887 2052.527, 2187.062 2054.723, 2188.452 2056.923 C 2189.841 2059.124, 2192.181 2061.555, 2193.653 2062.326 C 2195.124 2063.097, 2197.290 2065.477, 2198.466 2067.614 C 2199.642 2069.751, 2201.946 2072.160, 2203.586 2072.966 C 2205.226 2073.772, 2207.228 2075.797, 2208.034 2077.466 C 2208.840 2079.135, 2211.185 2081.400, 2213.244 2082.500 C 2215.303 2083.600, 2217.613 2085.788, 2218.376 2087.362 C 2219.140 2088.937, 2221.462 2091.187, 2223.537 2092.362 C 2225.611 2093.538, 2227.801 2095.381, 2228.404 2096.458 C 2230.115 2099.515, 2231.287 2100.565, 2235.025 2102.388 C 2236.936 2103.320, 2239.409 2105.527, 2240.520 2107.291 C 2241.631 2109.056, 2244.331 2111.340, 2246.520 2112.367 C 2248.709 2113.393, 2252.325 2115.909, 2254.555 2117.958 C 2257.217 2120.402, 2259.972 2121.900, 2262.572 2122.316 C 2265.640 2122.806, 2267.366 2123.944, 2270.221 2127.360 L 2273.907 2131.770 2280.082 2132.858 L 2286.257 2133.945 2289.975 2137.973 L 2293.693 2142 2298.332 2142 C 2305.076 2142, 2311.670 2144.014, 2312.988 2146.478 C 2314.849 2149.954, 2320.741 2151.794, 2331.050 2152.117 C 2342.014 2152.461, 2350.072 2153.828, 2358.500 2156.774 C 2366.260 2159.486, 2370.417 2160.071, 2382 2160.078 C 2393.050 2160.084, 2396.940 2159.569, 2406.500 2156.832 C 2416.790 2153.886, 2422.680 2153.098, 2441.007 2152.218 L 2457.514 2151.426 2465.007 2147.802 C 2469.880 2145.445, 2475.297 2143.751, 2480.500 2142.958 C 2490.728 2141.398, 2491.919 2140.114, 2492.054 2130.500 C 2492.187 2121.078, 2494.431 2104.751, 2496.521 2098 C 2497.457 2094.975, 2498.920 2088.900, 2499.772 2084.500 L 2501.320 2076.500 2501.410 2014.500 L 2501.500 1952.500 2499.739 1944 C 2498.771 1939.325, 2497.103 1932.575, 2496.033 1929 C 2493.355 1920.054, 2492.274 1909.390, 2492.078 1890 C 2491.888 1871.141, 2491.383 1868.113, 2487.191 1860.685 C 2483.452 1854.059, 2482 1846.563, 2482 1833.881 C 2482 1824.080, 2481.300 1820.540, 2478.834 1817.863 C 2474.639 1813.311, 2473.101 1809.169, 2472.455 1800.688 C 2471.354 1786.238, 2471.112 1785.337, 2467.333 1781.666 C 2463.514 1777.957, 2462.123 1773.490, 2462.044 1764.684 C 2461.992 1759.030, 2460.984 1756.777, 2456.314 1751.888 L 2452.865 1748.277 2452.119 1740.469 L 2451.373 1732.661 2447.604 1729.403 L 2443.834 1726.145 2442.731 1719.018 C 2441.653 1712.052, 2440.014 1709.118, 2435.738 1706.500 C 2434.762 1705.903, 2433.610 1702.883, 2432.876 1699 L 2431.647 1692.500 2427.483 1688.476 L 2423.318 1684.453 2422.625 1679.228 C 2422.126 1675.467, 2421.225 1673.372, 2419.409 1671.751 C 2418.022 1670.513, 2415.787 1668.508, 2414.443 1667.295 C 2412.950 1665.948, 2412 1663.993, 2412 1662.268 C 2412 1659.299, 2409.976 1655.718, 2406.591 1652.697 C 2405.480 1651.705, 2403.430 1648.555, 2402.035 1645.697 C 2400.438 1642.422, 2398.455 1640.004, 2396.676 1639.160 C 2394.890 1638.312, 2393.151 1636.186, 2391.947 1633.375 C 2390.796 1630.690, 2388.848 1628.252, 2387.027 1627.215 C 2385.369 1626.272, 2384.010 1624.920, 2384.006 1624.210 C 2383.995 1621.886, 2380.108 1615.230, 2377.618 1613.271 C 2376.277 1612.216, 2373.986 1609.586, 2372.527 1607.427 C 2371.068 1605.267, 2367.990 1601.613, 2365.687 1599.306 C 2363.384 1596.999, 2360.600 1594.159, 2359.500 1592.994 C 2358.400 1591.829, 2355.925 1589.360, 2354 1587.506 C 2352.075 1585.652, 2349.825 1583.426, 2349 1582.559 C 2344.294 1577.614, 2336.862 1571.361, 2332.500 1568.677 C 2329.750 1566.985, 2326.251 1564.169, 2324.725 1562.420 C 2323.199 1560.671, 2320.626 1558.975, 2319.007 1558.651 C 2317.387 1558.327, 2315.261 1557.137, 2314.281 1556.007 C 2309.897 1550.947, 2307.584 1549, 2305.959 1549 C 2304.997 1549, 2303.150 1547.840, 2301.855 1546.422 C 2295.736 1539.723, 2295.024 1539.231, 2290.467 1538.547 L 2285.773 1537.843 2281.476 1533.422 C 2279.112 1530.990, 2276.463 1528.944, 2275.589 1528.875 C 2274.715 1528.806, 2273.662 1528.668, 2273.250 1528.569 C 2272.838 1528.469, 2270.972 1528.025, 2269.104 1527.582 C 2267.185 1527.127, 2264.098 1525.085, 2262.009 1522.888 C 2259.236 1519.974, 2257.520 1519, 2255.155 1519 C 2253.420 1519, 2251.662 1518.927, 2251.250 1518.838 C 2244.164 1517.303, 2242.645 1516.583, 2239.695 1513.364 L 2236.368 1509.734 2226.934 1508.935 C 2216.270 1508.032, 2214.785 1507.613, 2210.295 1504.239 C 2205.496 1500.634, 2198.718 1498.999, 2188.591 1499.006 C 2176.558 1499.013, 2161.300 1497.337, 2146.149 1494.343 C 2133.832 1491.909, 2120.375 1491.385, 2113.500 1493.071 M 2264 1920.631 C 2260.975 1921.337, 2255.980 1921.934, 2252.899 1921.958 C 2245.475 1922.014, 2241.834 1923.406, 2237.280 1927.931 C 2234.577 1930.618, 2232.291 1931.878, 2229.256 1932.355 L 2225.011 1933.022 2222.447 1937.083 C 2220.935 1939.478, 2218.639 1941.578, 2216.851 1942.202 C 2214.681 1942.958, 2213.299 1944.469, 2211.997 1947.507 C 2210.778 1950.351, 2209.166 1952.202, 2207.117 1953.109 C 2203.999 1954.489, 2203.787 1954.981, 2202.430 1964 C 2201.904 1967.496, 2200.890 1969.281, 2197.886 1972 L 2194.020 1975.500 2193.010 1980.886 C 2191.790 1987.392, 2191.753 2007.769, 2192.950 2013.971 C 2193.502 2016.832, 2194.764 2019.260, 2196.454 2020.715 C 2199.720 2023.523, 2202 2028.785, 2202 2033.513 C 2202 2037.075, 2202.188 2037.336, 2209.249 2043.594 C 2210.686 2044.867, 2212.094 2047.806, 2212.842 2051.094 L 2214.073 2056.500 2217.287 2058.077 C 2219.167 2059, 2221.242 2061.206, 2222.290 2063.395 C 2223.484 2065.890, 2225.250 2067.624, 2227.595 2068.604 C 2229.541 2069.417, 2231.981 2071.548, 2233.061 2073.378 L 2235.011 2076.683 2240.579 2078.019 L 2246.148 2079.355 2249.975 2083.833 L 2253.803 2088.310 2261.151 2088.992 C 2265.821 2089.425, 2271.295 2090.827, 2276.167 2092.837 C 2280.383 2094.577, 2284.371 2096, 2285.027 2096 C 2285.684 2096, 2290.109 2094.465, 2294.861 2092.590 C 2299.612 2090.714, 2306.134 2088.942, 2309.353 2088.651 C 2314.861 2088.154, 2319 2086.054, 2319 2083.755 C 2319 2082.394, 2323.242 2079.072, 2325.029 2079.033 C 2325.870 2079.015, 2327.220 2078.021, 2328.029 2076.825 C 2330.135 2073.712, 2334.591 2069, 2335.430 2069 C 2336.570 2069, 2338.355 2066.754, 2340.407 2062.735 C 2341.457 2060.681, 2342.849 2059, 2343.502 2059 C 2346.752 2059, 2348.626 2054.102, 2348.917 2044.850 C 2348.967 2043.259, 2350.335 2040.861, 2352.338 2038.850 C 2358.189 2032.979, 2358.435 2031.996, 2358.828 2012.866 C 2359.245 1992.579, 2358.223 1985.491, 2354.362 1981.884 C 2350.696 1978.459, 2349 1974.695, 2349 1969.984 C 2349 1964.729, 2347.888 1962.721, 2343.562 1960.169 C 2341.536 1958.974, 2339.446 1956.610, 2338.578 1954.532 C 2336.760 1950.181, 2319.484 1933.176, 2316 1932.307 C 2312.381 1931.405, 2309.518 1929.337, 2308.025 1926.546 C 2306.506 1923.708, 2300.269 1922.014, 2291.201 1921.976 C 2288.065 1921.963, 2283.700 1921.475, 2281.500 1920.892 C 2275.452 1919.289, 2270.088 1919.209, 2264 1920.631 M 1975 2012.625 C 1974.175 2012.944, 1971.925 2013.983, 1970 2014.932 C 1968.075 2015.882, 1963.575 2017.251, 1960 2017.973 C 1953.329 2019.322, 1949 2022.085, 1949 2024.994 C 1949 2025.899, 1947.425 2028.480, 1945.500 2030.729 C 1941.415 2035.501, 1940.920 2040.576, 1944.058 2045.500 C 1946.639 2049.549, 1948.121 2052.905, 1948.916 2056.500 C 1949.391 2058.646, 1950.753 2060.148, 1953.701 2061.776 C 1956.272 2063.196, 1958.205 2065.149, 1958.839 2066.969 C 1959.491 2068.839, 1961.297 2070.621, 1963.869 2071.933 C 1966.076 2073.059, 1968.474 2075.222, 1969.197 2076.740 C 1969.936 2078.290, 1972.483 2080.505, 1975.007 2081.793 C 1977.478 2083.054, 1980.513 2085.636, 1981.751 2087.530 C 1983.529 2090.251, 1985.233 2091.338, 1989.855 2092.700 C 1994.361 2094.028, 1996.198 2095.172, 1997.835 2097.669 C 1999.263 2099.848, 2001.237 2101.256, 2003.850 2101.960 C 2006.670 2102.719, 2008.455 2104.089, 2010.346 2106.946 C 2011.969 2109.399, 2014.569 2111.601, 2017.238 2112.781 C 2019.594 2113.823, 2022.880 2116.034, 2024.539 2117.693 C 2026.199 2119.353, 2029.601 2121.615, 2032.101 2122.721 C 2035.232 2124.105, 2037.034 2125.669, 2037.895 2127.746 C 2038.688 2129.660, 2040.536 2131.389, 2042.957 2132.481 C 2046.349 2134.010, 2049 2137.331, 2049 2140.050 C 2049 2140.575, 2050.796 2142.628, 2052.990 2144.610 C 2056.714 2147.975, 2057.425 2149.466, 2059.369 2158 C 2059.682 2159.375, 2061.519 2162.300, 2063.451 2164.500 C 2067.950 2169.625, 2068.500 2172.401, 2068.500 2190 C 2068.500 2207.628, 2067.894 2210.775, 2063.557 2215.648 C 2061.191 2218.307, 2059.705 2221.405, 2058.603 2225.973 L 2057.029 2232.500 2053.015 2236.027 C 2050.807 2237.967, 2049 2240.084, 2049 2240.730 C 2049 2243.779, 2046.410 2247.019, 2042.826 2248.453 C 2040.421 2249.415, 2038.159 2251.311, 2036.928 2253.397 C 2035.368 2256.041, 2033.903 2257.035, 2030.216 2257.951 C 2026.644 2258.839, 2024.380 2260.320, 2020.881 2264.061 L 2016.263 2269 2012.881 2269.004 C 2009.185 2269.008, 2003.277 2272.114, 2002.345 2274.543 C 2001.396 2277.018, 1995.228 2279, 1988.478 2279 L 1982.201 2279 1976.968 2282.932 C 1968.811 2289.061, 1965.810 2289.319, 1903 2289.306 C 1873.025 2289.299, 1840.946 2288.999, 1831.712 2288.639 L 1814.925 2287.984 1812.462 2290.447 C 1808.956 2293.953, 1809.380 2296.083, 1814.500 2300.684 L 1819 2304.727 1819 2309.972 L 1819 2315.217 1823.651 2319.487 L 1828.302 2323.757 1829.099 2329.629 L 1829.895 2335.500 1833.891 2339 C 1836.612 2341.383, 1838.235 2343.851, 1838.978 2346.735 C 1839.710 2349.576, 1841.203 2351.875, 1843.515 2353.720 C 1846.172 2355.840, 1847.234 2357.689, 1848.152 2361.790 C 1849.030 2365.712, 1850.152 2367.755, 1852.422 2369.561 C 1857.758 2373.808, 1858.756 2375.032, 1859.365 2378.076 C 1859.759 2380.044, 1861.111 2381.723, 1863.381 2383.062 C 1865.947 2384.576, 1867.141 2386.232, 1868.152 2389.678 C 1869.046 2392.726, 1871.101 2395.886, 1874.250 2399.055 C 1876.862 2401.684, 1879 2404.548, 1879 2405.419 C 1879 2406.291, 1881.250 2408.620, 1884 2410.595 C 1886.750 2412.571, 1889 2414.802, 1889 2415.553 C 1889 2416.997, 1893.898 2422, 1895.311 2422 C 1896.484 2422, 1899 2424.653, 1899 2425.890 C 1899 2427.324, 1903.034 2431.010, 1905.776 2432.081 C 1907.027 2432.570, 1908.331 2433.764, 1908.672 2434.735 C 1909.557 2437.250, 1914.134 2442, 1915.673 2442 C 1916.387 2442, 1918.184 2443.832, 1919.666 2446.072 C 1921.148 2448.311, 1923.973 2450.966, 1925.945 2451.972 C 1927.916 2452.977, 1931.500 2455.602, 1933.909 2457.804 C 1936.318 2460.006, 1939.593 2462.069, 1941.188 2462.388 C 1942.869 2462.724, 1945.814 2464.865, 1948.197 2467.484 C 1950.458 2469.968, 1953.195 2472, 1954.279 2472 C 1955.373 2472, 1958.269 2474.225, 1960.786 2477 C 1964.150 2480.708, 1966.039 2482, 1968.096 2482 C 1972.547 2482, 1976.283 2483.841, 1979.500 2487.618 L 1982.500 2491.142 1989.500 2492.597 L 1996.500 2494.052 1999.584 2497.699 L 2002.668 2501.347 2009.944 2502.124 C 2013.945 2502.552, 2018.019 2503.486, 2018.997 2504.201 C 2019.975 2504.915, 2022.428 2506.811, 2024.447 2508.414 L 2028.119 2511.328 2037.810 2512.089 C 2043.139 2512.507, 2048.400 2513.151, 2049.500 2513.521 C 2052.483 2514.524, 2058.429 2517.410, 2059 2518.132 C 2059.275 2518.480, 2061.525 2519.448, 2064 2520.283 C 2070.032 2522.318, 2130.464 2523.431, 2167 2522.180 C 2194.568 2521.236, 2197.134 2520.811, 2203 2516.228 C 2205.859 2513.995, 2215.967 2512, 2224.428 2512 C 2230.568 2512, 2234.286 2510.459, 2239.218 2505.871 C 2242.302 2503.001, 2245.810 2502, 2252.780 2502 L 2257.310 2502 2261.123 2497.991 L 2264.936 2493.983 2271.659 2492.573 L 2278.381 2491.164 2282.109 2487.127 L 2285.836 2483.091 2290.693 2482.446 C 2296.192 2481.717, 2297.633 2480.840, 2300.837 2476.275 C 2302.325 2474.155, 2304.461 2472.684, 2307.070 2471.981 C 2309.850 2471.232, 2311.707 2469.881, 2313.270 2467.469 C 2314.496 2465.574, 2316.090 2464.019, 2316.812 2464.012 C 2319.958 2463.983, 2328.636 2458.886, 2330.281 2456.102 C 2331.249 2454.463, 2333.044 2452.818, 2334.271 2452.446 C 2337.211 2451.555, 2340.995 2448.063, 2342.088 2445.232 C 2342.570 2443.985, 2344.131 2442.520, 2345.557 2441.978 C 2348.503 2440.858, 2349.769 2439.683, 2352.321 2435.696 C 2353.309 2434.154, 2354.878 2432.625, 2355.808 2432.297 C 2358.349 2431.403, 2362 2427.840, 2362 2426.254 C 2362 2424.625, 2364.396 2422, 2365.883 2422 C 2367.401 2422, 2372 2417.128, 2372 2415.521 C 2372 2414.757, 2373.878 2412.865, 2376.172 2411.316 C 2378.467 2409.767, 2381.218 2406.925, 2382.286 2405 C 2383.354 2403.075, 2385.905 2399.925, 2387.956 2398 C 2390.301 2395.799, 2392.176 2392.802, 2393.009 2389.926 C 2393.962 2386.632, 2395.274 2384.735, 2397.697 2383.147 C 2399.797 2381.770, 2401.281 2379.845, 2401.645 2378.025 C 2402.246 2375.018, 2403.236 2373.815, 2408.686 2369.470 C 2411.096 2367.549, 2412.138 2365.653, 2412.959 2361.697 C 2413.808 2357.610, 2414.806 2355.857, 2417.518 2353.693 C 2419.960 2351.744, 2421.331 2349.571, 2422.138 2346.367 C 2422.931 2343.216, 2424.627 2340.489, 2427.642 2337.516 L 2432 2333.220 2432 2328.930 L 2432 2324.640 2436.549 2320.403 C 2440.014 2317.177, 2441.219 2315.253, 2441.603 2312.333 C 2441.881 2310.225, 2442.324 2307.063, 2442.589 2305.306 C 2442.891 2303.297, 2444.726 2300.407, 2447.535 2297.518 L 2452 2292.923 2452 2287.533 C 2452 2282.589, 2450.442 2279.094, 2448.179 2278.960 C 2447.805 2278.938, 2429.500 2278.825, 2407.500 2278.710 C 2365.204 2278.488, 2365.144 2278.482, 2359.589 2273.566 C 2356.341 2270.693, 2353.156 2269.749, 2341.554 2268.225 L 2333.607 2267.181 2331.700 2264.562 C 2329.204 2261.136, 2324.947 2259, 2320.615 2259 C 2315.505 2259, 2312.412 2257.517, 2308.129 2253.015 L 2304.310 2249 2300.702 2249 C 2295.705 2249, 2292.944 2247.483, 2289.835 2243.029 L 2287.169 2239.211 2282.031 2238.504 L 2276.894 2237.798 2272.557 2233.399 C 2270.172 2230.979, 2267.383 2228.986, 2266.360 2228.968 C 2264.013 2228.928, 2262.032 2227.363, 2259.172 2223.288 C 2257.550 2220.977, 2255.366 2219.587, 2251.379 2218.330 C 2247.636 2217.150, 2245.174 2215.649, 2243.786 2213.699 C 2242.656 2212.112, 2239.807 2209.989, 2237.456 2208.981 C 2234.799 2207.842, 2232.673 2206.079, 2231.840 2204.324 C 2231.103 2202.771, 2228.783 2200.661, 2226.685 2199.636 C 2224.586 2198.612, 2221.886 2196.270, 2220.685 2194.433 C 2219.483 2192.596, 2216.921 2190.204, 2214.992 2189.118 C 2213.063 2188.033, 2210.363 2185.931, 2208.992 2184.449 C 2207.621 2182.967, 2204.025 2179.918, 2201 2177.673 C 2197.975 2175.429, 2194.637 2172.504, 2193.582 2171.175 C 2192.527 2169.845, 2190.145 2168.123, 2188.289 2167.347 C 2186.432 2166.571, 2184.629 2165.164, 2184.281 2164.218 C 2183.379 2161.765, 2179.297 2158.115, 2176.708 2157.447 C 2175.493 2157.134, 2173.825 2155.443, 2173 2153.689 C 2172.175 2151.935, 2169.850 2149.617, 2167.834 2148.537 C 2165.817 2147.457, 2163.496 2145.165, 2162.675 2143.444 C 2161.807 2141.624, 2159.643 2139.584, 2157.503 2138.568 C 2155.211 2137.481, 2153.322 2135.631, 2152.493 2133.661 C 2151.759 2131.920, 2149.663 2129.702, 2147.825 2128.724 C 2145.989 2127.747, 2143.591 2125.304, 2142.494 2123.296 C 2141.397 2121.287, 2139.094 2118.936, 2137.376 2118.072 C 2135.657 2117.207, 2133.407 2114.957, 2132.376 2113.072 C 2131.344 2111.186, 2129.048 2108.936, 2127.273 2108.072 C 2125.498 2107.207, 2124.035 2105.970, 2124.023 2105.321 C 2123.987 2103.481, 2117.452 2097, 2115.632 2097 C 2114.734 2097, 2114 2096.266, 2114 2095.368 C 2114 2093.403, 2107.442 2087, 2105.429 2087 C 2104.643 2087, 2104 2086.266, 2104 2085.368 C 2104 2083.519, 2097.494 2077, 2095.648 2077 C 2094.983 2077, 2093.955 2075.720, 2093.365 2074.155 C 2092.710 2072.420, 2090.578 2070.366, 2087.901 2068.889 C 2085.487 2067.557, 2082.902 2065.196, 2082.157 2063.641 C 2081.409 2062.082, 2079.281 2060.180, 2077.407 2059.397 C 2075.483 2058.593, 2072.952 2056.301, 2071.569 2054.109 C 2070.208 2051.954, 2067.835 2049.790, 2066.212 2049.224 C 2064.609 2048.665, 2061.256 2046.136, 2058.759 2043.604 C 2056.263 2041.072, 2053.496 2038.944, 2052.610 2038.875 C 2051.725 2038.806, 2050.662 2038.657, 2050.250 2038.543 C 2049.838 2038.430, 2048.247 2037.983, 2046.715 2037.551 C 2045.163 2037.113, 2043.277 2035.503, 2042.455 2033.912 C 2040.733 2030.582, 2039.267 2029.720, 2032.538 2028.076 C 2029.238 2027.270, 2026.149 2025.548, 2023.311 2022.932 L 2019.045 2019 2012.772 2018.965 C 2006.112 2018.928, 1997.387 2017.216, 1990.020 2014.502 C 1985.090 2012.685, 1977.345 2011.718, 1975 2012.625 M 2916.500 2803.204 C 2914.850 2803.779, 2912.350 2805.318, 2910.945 2806.625 C 2909.540 2807.931, 2907.598 2809, 2906.630 2809 C 2905.661 2809, 2903.894 2809.522, 2902.702 2810.159 C 2901.511 2810.797, 2897.501 2812.099, 2893.793 2813.053 C 2888.766 2814.346, 2886.405 2815.554, 2884.518 2817.796 C 2883.050 2819.541, 2880.421 2821.175, 2878.259 2821.686 C 2875.466 2822.347, 2873.809 2823.642, 2871.654 2826.851 C 2870.072 2829.207, 2867.797 2831.507, 2866.598 2831.963 C 2863.553 2833.121, 2862.370 2834.896, 2861.688 2839.335 C 2861.294 2841.898, 2859.767 2844.614, 2857.083 2847.526 C 2852.359 2852.651, 2852.343 2852.712, 2851.367 2869.500 C 2850.423 2885.725, 2850.423 2896.169, 2851.363 2911.500 C 2852.420 2928.726, 2852.651 2929.666, 2856.973 2934.355 C 2859.414 2937.003, 2861.093 2939.978, 2861.564 2942.490 C 2862.292 2946.368, 2863.980 2949, 2865.741 2949 C 2866.807 2949, 2872 2954.291, 2872 2955.376 C 2872 2956.626, 2874.751 2959, 2876.200 2959 C 2877.457 2959, 2879.228 2960.537, 2883.807 2965.604 C 2885.141 2967.080, 2887.474 2967.908, 2891.620 2968.378 L 2897.532 2969.046 2902.712 2972.967 C 2905.561 2975.123, 2909.603 2977.392, 2911.696 2978.009 C 2914.213 2978.751, 2924.355 2979.024, 2941.679 2978.815 L 2967.858 2978.500 2970.679 2976.246 C 2974.904 2972.869, 2984.936 2968.273, 2989.769 2967.501 C 2993.016 2966.981, 2994.658 2966.005, 2996.631 2963.417 C 2998.309 2961.217, 3000.624 2959.640, 3003.188 2958.949 C 3006.327 2958.104, 3007.455 2957.155, 3008.612 2954.386 C 3009.447 2952.388, 3011.568 2950.007, 3013.562 2948.831 C 3017.906 2946.268, 3019 2944.273, 3019 2938.911 L 3019 2934.690 3023.015 2930.871 C 3025.223 2928.770, 3027.473 2925.886, 3028.015 2924.461 C 3029.247 2921.221, 3029.291 2863.959, 3028.066 2858.680 C 3027.500 2856.242, 3025.701 2853.454, 3023.090 2850.970 C 3020.840 2848.831, 3019 2846.136, 3019 2844.983 C 3019 2843.829, 3018.513 2840.952, 3017.918 2838.589 C 3017.068 2835.213, 3016.128 2833.955, 3013.535 2832.718 C 3011.543 2831.768, 3009.493 2829.633, 3008.367 2827.335 L 3006.500 2823.527 3001.859 2822.236 C 2997.764 2821.097, 2992 2816.904, 2992 2815.065 C 2992 2814.071, 2986.361 2812.346, 2978.502 2810.936 C 2973.076 2809.962, 2970.914 2809.049, 2968.883 2806.874 C 2967.348 2805.232, 2964.446 2803.650, 2961.881 2803.059 C 2956.152 2801.738, 2920.376 2801.852, 2916.500 2803.204 M 2785.858 2811.450 C 2783.875 2812.798, 2782.029 2814.486, 2781.756 2815.200 C 2781.483 2815.915, 2781.492 2852.570, 2781.775 2896.656 L 2782.291 2976.811 2784.692 2977.906 C 2787.822 2979.331, 2793.246 2979.301, 2796.453 2977.839 L 2799 2976.679 2799 2896.989 C 2799 2841.385, 2798.666 2816.340, 2797.895 2814.128 C 2795.945 2808.535, 2791.578 2807.564, 2785.858 2811.450 M 2921.804 2810.985 C 2920.321 2811.432, 2917.171 2813.187, 2914.804 2814.885 C 2912.437 2816.583, 2908.398 2818.364, 2905.828 2818.842 C 2901.416 2819.664, 2888 2827.968, 2888 2829.877 C 2888 2830.304, 2885.975 2832.859, 2883.500 2835.555 C 2880.887 2838.401, 2879 2841.423, 2879 2842.760 C 2879 2846.290, 2876.524 2851.207, 2873.235 2854.209 C 2871.602 2855.699, 2869.981 2858.343, 2869.633 2860.084 C 2869.285 2861.825, 2869 2875.838, 2869 2891.224 L 2869 2919.198 2870.728 2922.849 C 2871.679 2924.857, 2873.675 2927.695, 2875.165 2929.154 C 2876.727 2930.686, 2878.149 2933.436, 2878.524 2935.654 C 2879.587 2941.935, 2879.910 2942.625, 2883.645 2946.585 C 2885.612 2948.670, 2888.307 2952.017, 2889.634 2954.023 C 2892.284 2958.027, 2899.169 2962, 2903.460 2962 C 2905.256 2962, 2907.400 2963.200, 2909.684 2965.484 C 2914.826 2970.626, 2919.010 2971.481, 2939 2971.477 C 2958.803 2971.473, 2964.954 2970.333, 2969.160 2965.886 C 2970.663 2964.296, 2973.775 2962.582, 2976.319 2961.941 C 2979.256 2961.202, 2982.463 2959.278, 2985.548 2956.404 C 2988.150 2953.982, 2990.575 2952, 2990.938 2952 C 2991.301 2952, 2992.159 2950.449, 2992.844 2948.554 C 2993.576 2946.531, 2995.497 2944.238, 2997.494 2943.004 C 3001.150 2940.744, 3001.147 2940.751, 3003.085 2931.006 C 3003.796 2927.434, 3005.239 2923.609, 3006.293 2922.506 C 3007.347 2921.403, 3008.950 2919.396, 3009.855 2918.046 L 3011.500 2915.592 3011.713 2893.046 C 3011.944 2868.678, 3011.471 2865.577, 3006.744 2860.479 C 3004.067 2857.593, 3002 2851.329, 3002 2846.107 C 3002 2843.770, 3001.004 2842.267, 2997.534 2839.366 C 2995.078 2837.313, 2992.628 2834.370, 2992.090 2832.827 C 2991.494 2831.117, 2989.722 2829.358, 2987.556 2828.325 C 2985.600 2827.393, 2984 2826.316, 2984 2825.933 C 2984 2825.551, 2982.621 2823.889, 2980.936 2822.242 C 2978.814 2820.167, 2976.084 2818.867, 2972.056 2818.012 C 2968.857 2817.333, 2965.173 2815.801, 2963.870 2814.607 C 2962.566 2813.412, 2959.648 2811.887, 2957.384 2811.218 C 2952.767 2809.852, 2926.138 2809.678, 2921.804 2810.985 M 2253.095 2811.756 C 2197.193 2811.939, 2174.304 2812.333, 2173.345 2813.129 C 2171.544 2814.624, 2171.649 2816.507, 2173.647 2818.504 L 2175.294 2820.151 2205.897 2819.931 C 2240.318 2819.684, 2241.390 2819.857, 2242.912 2825.913 C 2243.408 2827.886, 2244.080 2841.650, 2244.407 2856.500 C 2244.734 2871.350, 2245.227 2892.275, 2245.504 2903 C 2245.781 2913.725, 2246.208 2930.375, 2246.454 2940 C 2246.700 2949.625, 2247.173 2958.625, 2247.505 2960 C 2248.610 2964.582, 2248.734 2967, 2247.862 2967 C 2247.388 2967, 2247 2967.681, 2247 2968.514 C 2247 2969.346, 2246.446 2970.914, 2245.770 2971.997 L 2244.539 2973.968 2246.020 2975.429 C 2246.834 2976.233, 2248.637 2977.092, 2250.027 2977.338 C 2251.416 2977.585, 2254.341 2978.546, 2256.527 2979.474 C 2262.399 2981.969, 2263.711 2982.054, 2266.126 2980.099 L 2268.316 2978.326 2267.908 2923.913 C 2267.684 2893.986, 2267.506 2859.492, 2267.513 2847.260 L 2267.526 2825.019 2270.131 2822.414 L 2272.736 2819.809 2304.602 2819.385 L 2336.467 2818.962 2337.966 2817.462 C 2340.009 2815.419, 2338.235 2812.709, 2334.405 2812.021 C 2332.807 2811.735, 2296.218 2811.615, 2253.095 2811.756 M 2581.971 2812.002 C 2569.216 2813.227, 2567.085 2814.818, 2568.912 2821.754 C 2569.812 2825.168, 2570.165 2841.786, 2571.475 2942.416 L 2571.903 2975.332 2573.451 2976.879 C 2575.729 2979.157, 2595.560 2979.989, 2633 2979.376 C 2663.432 2978.878, 2670.130 2978.230, 2671.742 2975.627 C 2672.851 2973.837, 2684.883 2968.218, 2689.279 2967.437 C 2691.717 2967.005, 2694.199 2965.556, 2696.275 2963.356 C 2698.045 2961.479, 2701.216 2959.480, 2703.322 2958.913 C 2706.318 2958.106, 2707.469 2957.122, 2708.612 2954.386 C 2709.455 2952.369, 2711.572 2950.005, 2713.617 2948.799 C 2717.552 2946.477, 2719 2943.648, 2719 2938.280 L 2719 2934.690 2723.015 2930.871 C 2725.223 2928.770, 2727.473 2925.886, 2728.015 2924.461 C 2729.471 2920.632, 2729.297 2864.725, 2727.815 2859.775 C 2727.095 2857.375, 2725.336 2854.833, 2723.341 2853.311 C 2721.196 2851.675, 2719.830 2849.612, 2719.410 2847.373 C 2719.017 2845.275, 2717.401 2842.691, 2715.251 2840.721 C 2713.318 2838.950, 2708.267 2834.012, 2704.027 2829.750 C 2699.788 2825.488, 2695.685 2821.997, 2694.909 2821.994 C 2691.083 2821.979, 2685.452 2819.500, 2681.845 2816.241 L 2677.832 2812.615 2667.166 2811.871 C 2653.792 2810.937, 2592.072 2811.033, 2581.971 2812.002 M 1804.500 2812.731 C 1796.680 2813.258, 1792.007 2814.135, 1790.762 2815.309 C 1789.526 2816.475, 1787.537 2817.483, 1781.500 2820.003 C 1779.850 2820.692, 1775.205 2821.591, 1771.177 2822.002 L 1763.855 2822.749 1758.492 2828.374 C 1755.543 2831.468, 1752.721 2834, 1752.221 2834 C 1751.720 2834, 1750.004 2835.124, 1748.406 2836.499 C 1746.807 2837.873, 1745.207 2838.998, 1744.848 2838.999 C 1743.030 2839.002, 1742 2846.775, 1742 2860.494 L 1742 2875.690 1743.829 2877.345 C 1744.835 2878.255, 1746.072 2879.015, 1746.579 2879.033 C 1747.904 2879.081, 1752 2882.649, 1752 2883.755 C 1752 2886.054, 1756.432 2888.418, 1761.964 2889.070 L 1767.855 2889.765 1770.926 2893.263 C 1774.654 2897.509, 1779.783 2899, 1790.659 2899 C 1798.952 2899, 1805.284 2900.776, 1810.500 2904.565 C 1814.348 2907.360, 1817.044 2907.930, 1830.747 2908.840 L 1841.993 2909.587 1845.747 2913.138 C 1847.811 2915.090, 1851.075 2917.254, 1853 2917.945 C 1859.430 2920.254, 1860.709 2921.166, 1862.354 2924.617 C 1863.253 2926.502, 1865.093 2928.465, 1866.442 2928.978 C 1867.792 2929.491, 1869.608 2930.999, 1870.479 2932.328 L 1872.064 2934.746 1871.782 2947.085 L 1871.500 2959.425 1868.190 2961.653 C 1866.370 2962.878, 1863.895 2965.328, 1862.690 2967.097 C 1860.389 2970.475, 1859.521 2971.086, 1854.250 2973.039 C 1852.463 2973.701, 1851 2974.698, 1851 2975.254 C 1851 2977.048, 1846.843 2979.936, 1843.121 2980.729 C 1841.130 2981.153, 1828.250 2981.489, 1814.500 2981.475 C 1787.232 2981.448, 1782.270 2980.742, 1780.037 2976.569 C 1779.264 2975.124, 1776.617 2973.265, 1773.577 2972.031 C 1770.744 2970.881, 1766.450 2968.079, 1764.034 2965.804 L 1759.643 2961.667 1758.057 2954.681 C 1756.076 2945.958, 1753.888 2944.039, 1745.271 2943.466 C 1740.644 2943.159, 1738.887 2943.431, 1737.911 2944.607 C 1737.128 2945.551, 1737.002 2946.415, 1737.587 2946.826 C 1739.756 2948.350, 1742.075 2953.268, 1742.669 2957.604 C 1743.339 2962.491, 1745.769 2965.807, 1750.041 2967.663 C 1751.439 2968.270, 1753.689 2970.386, 1755.041 2972.365 C 1756.930 2975.130, 1758.775 2976.356, 1763 2977.656 C 1768.205 2979.258, 1777 2984.524, 1777 2986.040 C 1777 2986.425, 1779.138 2987.347, 1781.750 2988.089 C 1785.267 2989.088, 1794.030 2989.424, 1815.500 2989.381 C 1831.450 2989.350, 1846.140 2989.015, 1848.145 2988.636 C 1850.149 2988.258, 1853.524 2986.609, 1855.645 2984.972 C 1857.765 2983.334, 1860.374 2981.325, 1861.442 2980.506 C 1862.510 2979.688, 1864.985 2978.759, 1866.942 2978.442 C 1875.675 2977.026, 1875.958 2976.890, 1877.677 2973.269 C 1878.822 2970.855, 1880.600 2969.173, 1883.142 2968.096 L 1886.910 2966.500 1888.144 2961.500 C 1889.896 2954.400, 1889.706 2926.303, 1887.884 2922.968 C 1886.246 2919.972, 1879.794 2914.076, 1875.328 2911.495 C 1873.584 2910.486, 1871.575 2908.574, 1870.864 2907.245 C 1869.027 2903.813, 1864.909 2902, 1858.951 2902 C 1853.643 2902, 1848.724 2900.230, 1843.500 2896.439 C 1839.300 2893.392, 1836.378 2892.832, 1820.904 2892.107 L 1807.308 2891.469 1803.017 2888.485 C 1795.935 2883.558, 1794.676 2883.088, 1785.944 2882.111 C 1781.331 2881.595, 1777.395 2880.684, 1777.195 2880.086 C 1776.996 2879.489, 1776.272 2879, 1775.586 2879 C 1774.899 2879, 1773.760 2877.920, 1773.053 2876.599 C 1772.346 2875.278, 1769.750 2872.691, 1767.283 2870.849 C 1760.866 2866.057, 1759 2861.830, 1759 2852.091 L 1759 2844.102 1762.750 2841.301 C 1768.010 2837.372, 1768.644 2836.698, 1769.444 2834.177 C 1770.476 2830.925, 1773.716 2829.270, 1780.500 2828.529 C 1785.912 2827.937, 1792.974 2824.721, 1792.993 2822.838 C 1793.003 2821.856, 1800.489 2820.756, 1808.983 2820.488 C 1820.395 2820.128, 1828.555 2821.432, 1832.284 2824.212 C 1835.697 2826.757, 1842.164 2828.997, 1846.116 2829.004 C 1851.158 2829.013, 1860.712 2837.092, 1862.997 2843.278 C 1864.007 2846.012, 1865.530 2847.966, 1867.317 2848.823 C 1868.835 2849.551, 1871.073 2851.683, 1872.289 2853.561 C 1874.034 2856.256, 1875.168 2856.978, 1877.668 2856.988 C 1879.411 2856.994, 1881.548 2856.727, 1882.418 2856.393 C 1884.877 2855.449, 1884.361 2850.552, 1881.517 2847.855 C 1879.633 2846.067, 1879.030 2844.465, 1879.017 2841.205 C 1878.999 2836.542, 1875.701 2832, 1872.333 2832 C 1871.367 2832, 1868.759 2830.264, 1866.538 2828.142 C 1863.839 2825.563, 1860.842 2823.866, 1857.500 2823.023 C 1846.915 2820.353, 1839.559 2817.891, 1836.479 2815.987 C 1833.437 2814.107, 1817.703 2811.823, 1811 2812.288 C 1809.625 2812.383, 1806.700 2812.583, 1804.500 2812.731 M 2042 2812.712 C 2041.175 2813.017, 2037.575 2815.182, 2034 2817.524 C 2028.923 2820.850, 2026.189 2821.932, 2021.510 2822.468 C 2015.191 2823.191, 2013.431 2824.067, 2012.518 2826.944 C 2012.210 2827.914, 2010.287 2829.561, 2008.244 2830.604 C 2002.695 2833.437, 2002.384 2833.949, 2001.610 2841.517 C 2001.217 2845.357, 2000.469 2848.928, 1999.948 2849.450 C 1998.554 2850.848, 1998.814 2857.720, 2000.500 2864 C 2001.312 2867.025, 2001.982 2870.893, 2001.988 2872.595 C 2002 2875.813, 2004.564 2879, 2007.142 2879 C 2008.843 2879, 2014 2884.054, 2014 2885.722 C 2014 2886.804, 2022.094 2889, 2026.081 2889 C 2029.097 2889, 2034.385 2891.478, 2037.084 2894.157 C 2040.672 2897.717, 2046.452 2899, 2058.898 2899 C 2070.715 2899, 2074.625 2899.974, 2080.446 2904.366 C 2084.324 2907.292, 2091.178 2909, 2099.043 2909 L 2105.200 2909 2108.850 2912.750 C 2110.858 2914.813, 2114.300 2917.401, 2116.500 2918.502 C 2119.302 2919.905, 2121.048 2921.716, 2122.330 2924.548 C 2123.336 2926.772, 2125.446 2929.456, 2127.018 2930.512 C 2130.865 2933.097, 2132 2935.963, 2132 2943.087 C 2132 2949.911, 2129.873 2954.896, 2125.069 2959.335 C 2123.381 2960.894, 2122 2962.997, 2122 2964.008 C 2122 2967.348, 2117.150 2971.999, 2113.661 2972.006 C 2108.483 2972.015, 2102.910 2973.994, 2100.634 2976.631 C 2099.460 2977.992, 2096.700 2979.526, 2094.500 2980.042 C 2089.189 2981.286, 2054.398 2981.315, 2050.193 2980.079 C 2048.374 2979.544, 2045.325 2977.736, 2043.417 2976.061 C 2041.509 2974.386, 2038.001 2972.525, 2035.620 2971.926 C 2029.019 2970.264, 2019.559 2962.067, 2018.059 2956.712 C 2017.230 2953.748, 2015.834 2951.740, 2013.488 2950.132 C 2009.648 2947.501, 2007.617 2944.722, 2006.643 2940.765 C 2005.761 2937.182, 2001.947 2936.178, 1997.421 2938.336 C 1993.855 2940.037, 1992.338 2943.340, 1993.477 2946.928 C 1993.839 2948.068, 1994.719 2949, 1995.433 2949 C 1998.445 2949, 2001.772 2952.996, 2002.434 2957.411 C 2003.295 2963.150, 2005.840 2966.297, 2010.997 2967.999 C 2013.536 2968.837, 2016.387 2970.870, 2018.367 2973.254 C 2020.933 2976.343, 2023.121 2977.641, 2029.013 2979.571 C 2033.092 2980.907, 2037.155 2982, 2038.041 2982 C 2038.927 2982, 2040.690 2983.106, 2041.959 2984.457 C 2045.574 2988.304, 2052.461 2989.181, 2076.251 2988.821 C 2092.825 2988.571, 2098.088 2988.170, 2100.173 2987 C 2101.643 2986.175, 2105.436 2984.037, 2108.601 2982.250 C 2112.867 2979.840, 2115.590 2979, 2119.131 2979 C 2124.194 2979, 2129 2977.366, 2129 2975.644 C 2129 2974.361, 2134.050 2969, 2135.259 2969 C 2136.378 2969, 2139 2966.414, 2139 2965.310 C 2139 2964.853, 2140.415 2963.358, 2142.144 2961.989 C 2143.873 2960.620, 2146.123 2958.713, 2147.144 2957.750 L 2149 2956 2149 2940.547 C 2149 2926.218, 2148.083 2920, 2145.969 2920 C 2144.960 2920, 2132 2906.915, 2132 2905.896 C 2132 2904.497, 2126.305 2902, 2123.115 2902 C 2118.860 2902, 2114.960 2900.319, 2111.500 2896.995 C 2107.683 2893.327, 2102.104 2892.061, 2089.500 2892.002 C 2079.271 2891.955, 2073.181 2890.283, 2068.803 2886.322 C 2066.366 2884.116, 2056.709 2882.034, 2048.831 2882.016 L 2042.162 2882 2038.831 2878.441 C 2036.999 2876.483, 2032.709 2873.583, 2029.298 2871.995 L 2023.096 2869.109 2021.048 2865.094 L 2019 2861.080 2019 2850.262 C 2019 2841.690, 2019.355 2838.932, 2020.709 2836.973 C 2023.832 2832.454, 2026.780 2830.551, 2033.962 2828.419 C 2037.045 2827.503, 2039.100 2826.181, 2039.971 2824.554 C 2041.882 2820.983, 2049.376 2819.681, 2068.500 2819.599 C 2090.321 2819.506, 2095.195 2820.278, 2099.959 2824.582 C 2102.039 2826.461, 2105.261 2828.288, 2107.120 2828.643 C 2113.863 2829.929, 2121.944 2837.712, 2122.025 2843 C 2122.076 2846.316, 2124.016 2848.715, 2127.318 2849.544 C 2131.196 2850.517, 2137 2849.229, 2137 2847.396 C 2137 2846.505, 2137.476 2846.176, 2138.156 2846.596 C 2139.005 2847.121, 2139.151 2845.745, 2138.704 2841.405 C 2138.091 2835.461, 2135.773 2832, 2132.403 2832 C 2131.647 2832, 2129.847 2830.214, 2128.402 2828.032 C 2125.594 2823.789, 2124.946 2823.442, 2118 2822.471 C 2114.972 2822.048, 2111.789 2820.554, 2108.270 2817.904 C 2105.394 2815.738, 2101.877 2813.524, 2100.455 2812.983 C 2097.768 2811.961, 2044.698 2811.715, 2042 2812.712 M 2371 2813.004 C 2363.792 2813.882, 2363.654 2814.107, 2364.365 2823.890 C 2364.708 2828.625, 2365.182 2834.075, 2365.418 2836 C 2365.653 2837.925, 2366.115 2853.900, 2366.445 2871.500 C 2367.223 2913.042, 2367.483 2917.106, 2369.939 2926.271 C 2371.101 2930.610, 2372 2937.047, 2372 2941.038 L 2372 2948.113 2376.811 2952.806 C 2379.943 2955.862, 2382.049 2958.977, 2382.846 2961.734 C 2384.159 2966.273, 2385.775 2967.594, 2391.112 2968.494 C 2394.090 2968.995, 2399.884 2974.004, 2399.973 2976.152 C 2400.025 2977.414, 2406.355 2979, 2411.399 2979.016 C 2414.205 2979.024, 2419.200 2979.670, 2422.500 2980.450 C 2430.258 2982.285, 2460.709 2982.245, 2469.356 2980.389 C 2472.735 2979.664, 2477.877 2979.054, 2480.782 2979.035 C 2487.041 2978.994, 2492.573 2976.921, 2493.402 2974.308 C 2494.111 2972.075, 2498.990 2969, 2501.823 2969 C 2505.549 2969, 2507.186 2967.733, 2509.038 2963.412 C 2510.183 2960.740, 2512.011 2958.528, 2513.869 2957.568 C 2517.360 2955.762, 2517.800 2954.649, 2518.900 2944.842 C 2519.503 2939.466, 2520.735 2935.491, 2523.501 2930 L 2527.278 2922.500 2526.708 2883 C 2526.394 2861.275, 2525.871 2842.375, 2525.545 2841 C 2524.489 2836.545, 2524.703 2823.423, 2525.867 2821.248 C 2527.675 2817.870, 2527.233 2815.039, 2524.750 2814.098 C 2523.512 2813.630, 2518.377 2812.921, 2513.338 2812.524 L 2504.177 2811.802 2503.308 2813.651 C 2502.830 2814.668, 2502.693 2830.350, 2503.004 2848.500 C 2503.689 2888.509, 2503.385 2928.322, 2502.300 2940.466 L 2501.500 2949.432 2498.084 2951.728 C 2496.206 2952.991, 2493.866 2955.818, 2492.884 2958.011 C 2491.808 2960.414, 2489.987 2962.489, 2488.299 2963.236 C 2486.760 2963.916, 2483.795 2966.167, 2481.711 2968.237 L 2477.923 2972 2470.961 2972.125 C 2467.133 2972.194, 2463.662 2972.332, 2463.250 2972.433 C 2452.654 2975.017, 2440.834 2975.403, 2433 2973.420 C 2431.625 2973.072, 2426.571 2972.498, 2421.769 2972.144 L 2413.039 2971.500 2408.769 2966.881 C 2406.421 2964.340, 2403.544 2961.965, 2402.375 2961.603 C 2401.068 2961.198, 2399.608 2959.261, 2398.580 2956.570 C 2397.546 2953.862, 2395.612 2951.307, 2393.504 2949.862 C 2391.631 2948.579, 2389.859 2946.576, 2389.567 2945.410 C 2388.801 2942.361, 2387.919 2889.277, 2387.963 2848.871 L 2388 2814.243 2385.187 2813.077 C 2382.419 2811.931, 2379.920 2811.918, 2371 2813.004 M 2591.202 2820.813 L 2588.904 2822.581 2588.975 2894.267 C 2589.013 2933.694, 2589.294 2966.604, 2589.600 2967.399 C 2589.905 2968.195, 2591.754 2969.605, 2593.710 2970.532 L 2597.265 2972.219 2628.882 2971.736 C 2646.939 2971.460, 2661.895 2970.799, 2663.752 2970.195 C 2665.540 2969.614, 2668.518 2967.532, 2670.370 2965.569 C 2672.480 2963.332, 2674.666 2962, 2676.229 2962 C 2678.588 2962, 2684.551 2958.592, 2687.700 2955.443 C 2688.494 2954.649, 2689.448 2954, 2689.821 2953.999 C 2690.195 2953.998, 2691.713 2951.837, 2693.197 2949.197 C 2694.680 2946.556, 2697.054 2943.774, 2698.474 2943.014 C 2699.893 2942.255, 2701.228 2940.703, 2701.441 2939.567 C 2703.588 2928.119, 2704.476 2925.199, 2706.479 2923 C 2711.241 2917.771, 2711.477 2916.521, 2711.836 2894.605 C 2712.216 2871.460, 2711.480 2866.558, 2706.966 2862.154 C 2703.853 2859.117, 2702.014 2854.315, 2701.968 2849.101 C 2701.932 2845.008, 2701.029 2843.642, 2695.750 2839.699 C 2693.688 2838.159, 2692 2836.267, 2692 2835.495 C 2692 2833.204, 2687.641 2829.532, 2683.171 2828.056 C 2680.877 2827.299, 2679 2826.308, 2679 2825.854 C 2679 2825.400, 2676.313 2823.672, 2673.029 2822.014 L 2667.057 2819 2630.279 2819.022 L 2593.500 2819.044 2591.202 2820.813 M 1671.500 2820.720 C 1668.421 2820.946, 1582.434 2821.983, 1571.306 2821.929 L 1565.113 2821.899 1563.536 2824.305 L 1561.959 2826.711 1562.914 2831.606 C 1563.603 2835.133, 1565.546 2968.206, 1565.031 2976.500 C 1564.997 2977.050, 1564.707 2979.373, 1564.388 2981.663 L 1563.807 2985.826 1565.938 2986.967 C 1569.888 2989.081, 1602.048 2989.976, 1654.394 2989.428 C 1688.944 2989.067, 1706.866 2988.527, 1707.717 2987.820 C 1708.423 2987.234, 1709 2986.190, 1709 2985.500 C 1709 2981.917, 1707.243 2981.810, 1650.512 2981.950 L 1594.955 2982.086 1591.936 2980.303 C 1590.276 2979.323, 1588.734 2977.616, 1588.510 2976.510 C 1588.286 2975.405, 1587.867 2960.775, 1587.579 2944 C 1587.005 2910.583, 1587.590 2905.123, 1592.103 2901.794 L 1594.500 2900.025 1639.500 2899.922 C 1685.706 2899.817, 1691.112 2899.397, 1691.789 2895.866 C 1692.475 2892.283, 1687.212 2891.908, 1638.548 2892.073 L 1591.597 2892.233 1589.418 2889.700 L 1587.240 2887.167 1586.750 2860.834 L 1586.261 2834.500 1589.146 2831.750 L 1592.032 2829 1631.266 2828.994 C 1669.643 2828.988, 1700.256 2828.331, 1704.750 2827.419 C 1706.303 2827.103, 1707 2826.245, 1707 2824.650 C 1707 2820.755, 1703.780 2819.990, 1688.500 2820.256 C 1680.800 2820.390, 1673.150 2820.599, 1671.500 2820.720 M 1393.607 2822 L 1373.715 2822.500 1372.665 2824.166 C 1371.905 2825.374, 1371.977 2826.268, 1372.930 2827.416 L 1374.245 2829 1405.172 2829 L 1436.099 2829 1438.979 2830.489 C 1440.563 2831.308, 1442.085 2832.771, 1442.362 2833.739 C 1442.639 2834.708, 1443.149 2869.475, 1443.494 2911 L 1444.123 2986.500 1445.641 2987.668 C 1446.542 2988.362, 1451.145 2988.868, 1456.982 2988.915 L 1466.806 2988.995 1467.818 2986.092 C 1468.422 2984.361, 1468.498 2981.638, 1468.008 2979.345 C 1467.556 2977.230, 1466.924 2951.650, 1466.605 2922.500 C 1466.285 2893.350, 1465.740 2861.758, 1465.394 2852.296 L 1464.764 2835.093 1466.153 2833.704 C 1470.164 2829.693, 1471.647 2829.513, 1504.892 2829 L 1537.285 2828.500 1538.350 2826.809 C 1539.168 2825.510, 1538.975 2824.630, 1537.519 2823.021 L 1535.622 2820.925 1474.561 2821.213 C 1440.977 2821.371, 1404.548 2821.725, 1393.607 2822 M 1066.199 2824.088 C 1062.269 2824.898, 1062.893 2824.226, 1059.700 2831.083 C 1057.295 2836.247, 1056.520 2841, 1058.084 2841 C 1059.496 2841, 1060.186 2861.429, 1060.498 2912.495 C 1060.887 2976.217, 1061.560 2992.235, 1063.973 2995.215 L 1065.670 2997.311 1099.085 2997.485 C 1117.463 2997.581, 1144.650 2997.399, 1159.500 2997.080 L 1186.500 2996.500 1186.500 2992 L 1186.500 2987.500 1182 2987.739 C 1179.525 2987.870, 1176.600 2988.045, 1175.500 2988.128 C 1174.400 2988.210, 1167.875 2988.232, 1161 2988.176 C 1154.125 2988.120, 1146.475 2988.240, 1144 2988.443 C 1141.525 2988.646, 1128.216 2988.907, 1114.424 2989.022 L 1089.348 2989.231 1086.130 2987.567 C 1084.360 2986.652, 1082.033 2984.462, 1080.960 2982.701 L 1079.007 2979.500 1078.947 2905.500 C 1078.903 2850.918, 1078.574 2830.586, 1077.694 2828.015 L 1076.500 2824.530 1073 2823.969 C 1071.075 2823.660, 1068.015 2823.713, 1066.199 2824.088 M 1287.834 2826.787 C 1285.425 2828.569, 1283.756 2830.873, 1282.968 2833.500 C 1280.724 2840.981, 1279.598 2843.388, 1276.912 2846.447 C 1275.437 2848.128, 1273.651 2851.527, 1272.945 2854.001 C 1272.239 2856.476, 1269.942 2861.133, 1267.840 2864.351 C 1265.738 2867.569, 1263.350 2872.449, 1262.535 2875.195 C 1261.719 2877.942, 1259.494 2882.357, 1257.591 2885.007 C 1255.687 2887.656, 1253.437 2892.156, 1252.591 2895.007 C 1251.744 2897.857, 1249.486 2902.369, 1247.572 2905.033 C 1245.658 2907.697, 1243.375 2912.343, 1242.499 2915.356 C 1241.623 2918.370, 1239.354 2922.868, 1237.457 2925.352 C 1235.561 2927.836, 1233.370 2932.322, 1232.589 2935.321 C 1230.843 2942.022, 1228.615 2946.456, 1226.113 2948.208 C 1225.069 2948.940, 1223.504 2951.931, 1222.636 2954.855 C 1221.069 2960.130, 1217.338 2967.185, 1215.768 2967.842 C 1214.701 2968.288, 1212 2974.773, 1212 2976.890 C 1212 2977.795, 1210.943 2980.103, 1209.652 2982.018 C 1206.868 2986.146, 1205.841 2990.629, 1207.390 2991.893 C 1208.073 2992.451, 1209.966 2992.210, 1212.314 2991.267 L 1216.128 2989.735 1219.030 2983.593 C 1220.626 2980.214, 1222.909 2976.401, 1224.104 2975.119 C 1225.299 2973.837, 1227.122 2970.070, 1228.155 2966.749 C 1230.770 2958.348, 1233.821 2953.303, 1237.657 2951.040 L 1240.930 2949.109 1289.866 2948.934 C 1316.781 2948.838, 1339.303 2949.069, 1339.915 2949.448 C 1340.528 2949.826, 1341.915 2951.872, 1342.998 2953.995 C 1344.080 2956.118, 1345.777 2958.112, 1346.767 2958.426 C 1349.388 2959.258, 1352 2964.255, 1352 2968.436 C 1352 2972.544, 1354.386 2979, 1355.904 2979 C 1357.426 2979, 1362 2983.893, 1362 2985.522 C 1362 2986.310, 1363.137 2987.699, 1364.526 2988.609 C 1367.349 2990.459, 1374.361 2990.024, 1378.028 2987.772 L 1380.099 2986.500 1379.434 2981.500 C 1378.605 2975.263, 1377.585 2973.278, 1373.264 2969.500 L 1369.833 2966.500 1369.088 2960.148 L 1368.343 2953.795 1363.671 2949.506 L 1359 2945.217 1359 2940.655 C 1359 2934.859, 1357.716 2932.129, 1353.519 2929 C 1350.172 2926.505, 1349 2923.595, 1349 2917.779 C 1349 2914.481, 1345.595 2909, 1343.546 2909 C 1341.663 2909, 1339 2902.851, 1339 2898.503 C 1339 2894.657, 1335.814 2889, 1333.648 2889 C 1331.699 2889, 1329 2883.510, 1329 2879.546 C 1329 2875.976, 1326.658 2870.033, 1325.224 2869.967 C 1324.826 2869.948, 1323.445 2869.054, 1322.155 2867.979 C 1320.348 2866.474, 1319.621 2864.511, 1318.992 2859.438 C 1318.205 2853.091, 1316.076 2849, 1313.561 2849 C 1311.686 2849, 1309 2843.431, 1309 2839.546 C 1309 2834.618, 1306.763 2830.635, 1302.524 2828.015 C 1300.586 2826.817, 1299 2825.424, 1299 2824.918 C 1299 2822.854, 1291.439 2824.119, 1287.834 2826.787 M 987.052 2826.427 C 982.546 2828.922, 982.348 2831.513, 983.101 2878 C 983.489 2901.925, 983.850 2937.342, 983.903 2956.705 L 984 2991.909 986.545 2994.455 C 987.945 2995.855, 990.308 2997.042, 991.795 2997.093 C 999.662 2997.362, 1003.614 2996.749, 1005.426 2994.976 L 1007.352 2993.093 1007.142 2951.296 C 1006.879 2898.948, 1006.322 2871.790, 1005.392 2866 C 1004.495 2860.414, 1004.305 2842.376, 1005.107 2839 C 1005.836 2835.935, 1004.652 2833.750, 999.587 2828.814 C 995.323 2824.658, 991.545 2823.938, 987.052 2826.427 M 872 2827.804 C 872 2828.247, 863.563 2828.642, 853.250 2828.683 C 820.992 2828.810, 815.587 2829.520, 810.427 2834.305 L 807.910 2836.638 809 2841.499 C 809.599 2844.173, 810.050 2851.117, 810.001 2856.930 C 809.953 2862.744, 810.165 2874.700, 810.472 2883.500 C 810.779 2892.300, 811.186 2921.225, 811.376 2947.777 C 811.566 2974.330, 811.896 2996.206, 812.111 2996.392 C 815.209 2999.076, 825.592 3000.008, 827.800 2997.800 C 828.679 2996.921, 829.004 2988.573, 829.014 2966.550 C 829.021 2950.023, 829.275 2935.578, 829.578 2934.450 C 830.790 2929.939, 832.649 2929.681, 866.500 2929.315 C 887.060 2929.093, 899.865 2928.552, 902.317 2927.803 C 904.417 2927.161, 907.905 2924.918, 910.068 2922.818 C 913.628 2919.363, 915.985 2918.425, 919.810 2918.939 C 923.019 2919.371, 927.873 2916.802, 928.784 2914.191 C 929.303 2912.702, 931.026 2910.832, 932.614 2910.035 C 938.157 2907.253, 939 2906.007, 939.001 2900.595 C 939.002 2895.992, 941.483 2887.183, 943.287 2885.379 C 944.692 2883.975, 943.964 2873.975, 942.079 2868.788 C 941.022 2865.879, 939.845 2861.475, 939.463 2859 C 939.080 2856.525, 938.295 2853.600, 937.718 2852.500 C 936.164 2849.541, 931.025 2844.991, 926.663 2842.712 C 924.553 2841.610, 921.853 2839.208, 920.663 2837.376 C 918.053 2833.355, 917.468 2833.101, 909.170 2832.381 C 905.579 2832.069, 901.603 2831.420, 900.335 2830.937 C 899.067 2830.455, 895.210 2829.792, 891.764 2829.463 C 888.319 2829.134, 883.055 2828.445, 880.066 2827.933 C 873.416 2826.791, 872 2826.769, 872 2827.804 M 846 2836.120 L 833.500 2836.880 831.250 2839.496 L 829 2842.112 829 2879.983 L 829 2917.855 831.733 2920.005 L 834.466 2922.154 863.483 2921.785 C 894.857 2921.386, 896.224 2921.171, 901.538 2915.805 C 903.209 2914.118, 906.098 2912.234, 907.957 2911.619 C 910.121 2910.903, 911.907 2909.367, 912.919 2907.351 C 913.789 2905.619, 915.973 2903.405, 917.774 2902.431 C 921.579 2900.372, 921.715 2899.888, 922.387 2886 C 923.280 2867.515, 921.062 2852.045, 917.509 2851.982 C 916.954 2851.973, 915.481 2850.735, 914.236 2849.232 C 912.990 2847.730, 910.692 2844.956, 909.129 2843.068 L 906.286 2839.637 897.893 2838.884 C 893.277 2838.469, 886.800 2837.612, 883.500 2836.979 C 875.730 2835.489, 861.675 2835.166, 846 2836.120 M 1282.759 2850.234 C 1280.379 2852.039, 1279 2856.364, 1279 2862.017 L 1279 2866.904 1275.512 2870.291 C 1272.004 2873.698, 1269 2880.278, 1269 2884.555 C 1269 2885.821, 1267.466 2888.484, 1265.591 2890.472 C 1261.978 2894.303, 1259.704 2899.101, 1258.590 2905.247 C 1258.216 2907.307, 1256.760 2910.232, 1255.355 2911.747 C 1250.545 2916.928, 1247.236 2926.098, 1247.064 2934.724 L 1247 2937.949 1250.033 2939.517 L 1253.066 2941.086 1290.097 2941.024 L 1327.127 2940.963 1329.563 2939.367 L 1332 2937.770 1332 2929.840 L 1332 2921.909 1329.386 2919.568 C 1327.949 2918.281, 1325.961 2916.538, 1324.969 2915.696 C 1323.815 2914.717, 1322.916 2912.061, 1322.476 2908.332 C 1321.750 2902.177, 1320.038 2898.609, 1316.455 2895.788 C 1314.450 2894.209, 1312.963 2890.201, 1311.499 2882.430 C 1311.180 2880.741, 1309.437 2877.816, 1307.624 2875.930 C 1303.803 2871.952, 1302.006 2867.388, 1301.985 2861.601 C 1301.965 2855.864, 1300.083 2852.710, 1295.848 2851.317 C 1289.688 2849.291, 1284.560 2848.866, 1282.759 2850.234" stroke="none" fill="#C8522A" fill-rule="evenodd"/>
</svg>